<svg width="283" height="80" viewBox="0 0 283 80" fill="none" xmlns="http://www.w3.org/2000/svg">
<rect x="19.5" y="41" width="13.5375" height="13.5375" transform="rotate(45 19.5 41)" fill="#BA68C8"/>
<rect x="19.5" y="60.855" width="13.5375" height="13.5375" transform="rotate(45 19.5 60.855)" fill="#BA68C8"/>
<rect x="29.4277" y="50.9275" width="13.5375" height="13.5375" transform="rotate(45 29.4277 50.9275)" fill="#BA68C8"/>
<rect x="9.57227" y="50.9275" width="13.5375" height="13.5375" transform="rotate(45 9.57227 50.9275)" fill="#BA68C8"/>
<rect x="153.25" y="0.25" width="129.5" height="29.5" fill="#13C6BF" stroke="white" stroke-width="0.5"/>
<path d="M178.26 8.04C179.727 8.04 181.013 8.32667 182.12 8.9C183.24 9.47333 184.1 10.2933 184.7 11.36C185.313 12.4133 185.62 13.64 185.62 15.04C185.62 16.44 185.313 17.6667 184.7 18.72C184.1 19.76 183.24 20.5667 182.12 21.14C181.013 21.7133 179.727 22 178.26 22H173.38V8.04H178.26ZM178.16 19.62C179.627 19.62 180.76 19.22 181.56 18.42C182.36 17.62 182.76 16.4933 182.76 15.04C182.76 13.5867 182.36 12.4533 181.56 11.64C180.76 10.8133 179.627 10.4 178.16 10.4H176.18V19.62H178.16ZM198.016 16.22C198.016 16.62 197.989 16.98 197.936 17.3H189.836C189.903 18.1 190.183 18.7267 190.676 19.18C191.169 19.6333 191.776 19.86 192.496 19.86C193.536 19.86 194.276 19.4133 194.716 18.52H197.736C197.416 19.5867 196.803 20.4667 195.896 21.16C194.989 21.84 193.876 22.18 192.556 22.18C191.489 22.18 190.529 21.9467 189.676 21.48C188.836 21 188.176 20.3267 187.696 19.46C187.229 18.5933 186.996 17.5933 186.996 16.46C186.996 15.3133 187.229 14.3067 187.696 13.44C188.163 12.5733 188.816 11.9067 189.656 11.44C190.496 10.9733 191.463 10.74 192.556 10.74C193.609 10.74 194.549 10.9667 195.376 11.42C196.216 11.8733 196.863 12.52 197.316 13.36C197.783 14.1867 198.016 15.14 198.016 16.22ZM195.116 15.42C195.103 14.7 194.843 14.1267 194.336 13.7C193.829 13.26 193.209 13.04 192.476 13.04C191.783 13.04 191.196 13.2533 190.716 13.68C190.249 14.0933 189.963 14.6733 189.856 15.42H195.116ZM204.3 22.18C203.393 22.18 202.58 22.02 201.86 21.7C201.14 21.3667 200.566 20.92 200.14 20.36C199.726 19.8 199.5 19.18 199.46 18.5H202.28C202.333 18.9267 202.54 19.28 202.9 19.56C203.273 19.84 203.733 19.98 204.28 19.98C204.813 19.98 205.226 19.8733 205.52 19.66C205.826 19.4467 205.98 19.1733 205.98 18.84C205.98 18.48 205.793 18.2133 205.42 18.04C205.06 17.8533 204.48 17.6533 203.68 17.44C202.853 17.24 202.173 17.0333 201.64 16.82C201.12 16.6067 200.666 16.28 200.28 15.84C199.906 15.4 199.72 14.8067 199.72 14.06C199.72 13.4467 199.893 12.8867 200.24 12.38C200.6 11.8733 201.106 11.4733 201.76 11.18C202.426 10.8867 203.206 10.74 204.1 10.74C205.42 10.74 206.473 11.0733 207.26 11.74C208.046 12.3933 208.48 13.28 208.56 14.4H205.88C205.84 13.96 205.653 13.6133 205.32 13.36C205 13.0933 204.566 12.96 204.02 12.96C203.513 12.96 203.12 13.0533 202.84 13.24C202.573 13.4267 202.44 13.6867 202.44 14.02C202.44 14.3933 202.626 14.68 203 14.88C203.373 15.0667 203.953 15.26 204.74 15.46C205.54 15.66 206.2 15.8667 206.72 16.08C207.24 16.2933 207.686 16.6267 208.06 17.08C208.446 17.52 208.646 18.1067 208.66 18.84C208.66 19.48 208.48 20.0533 208.12 20.56C207.773 21.0667 207.266 21.4667 206.6 21.76C205.946 22.04 205.18 22.18 204.3 22.18ZM212.378 9.6C211.885 9.6 211.471 9.44667 211.138 9.14C210.818 8.82 210.658 8.42667 210.658 7.96C210.658 7.49333 210.818 7.10667 211.138 6.8C211.471 6.48 211.885 6.32 212.378 6.32C212.871 6.32 213.278 6.48 213.598 6.8C213.931 7.10667 214.098 7.49333 214.098 7.96C214.098 8.42667 213.931 8.82 213.598 9.14C213.278 9.44667 212.871 9.6 212.378 9.6ZM213.758 10.92V22H210.958V10.92H213.758ZM220.865 10.74C221.691 10.74 222.418 10.9067 223.045 11.24C223.671 11.56 224.165 11.98 224.525 12.5V10.92H227.345V22.08C227.345 23.1067 227.138 24.02 226.725 24.82C226.311 25.6333 225.691 26.2733 224.865 26.74C224.038 27.22 223.038 27.46 221.865 27.46C220.291 27.46 218.998 27.0933 217.985 26.36C216.985 25.6267 216.418 24.6267 216.285 23.36H219.065C219.211 23.8667 219.525 24.2667 220.005 24.56C220.498 24.8667 221.091 25.02 221.785 25.02C222.598 25.02 223.258 24.7733 223.765 24.28C224.271 23.8 224.525 23.0667 224.525 22.08V20.36C224.165 20.88 223.665 21.3133 223.025 21.66C222.398 22.0067 221.678 22.18 220.865 22.18C219.931 22.18 219.078 21.94 218.305 21.46C217.531 20.98 216.918 20.3067 216.465 19.44C216.025 18.56 215.805 17.5533 215.805 16.42C215.805 15.3 216.025 14.3067 216.465 13.44C216.918 12.5733 217.525 11.9067 218.285 11.44C219.058 10.9733 219.918 10.74 220.865 10.74ZM224.525 16.46C224.525 15.78 224.391 15.2 224.125 14.72C223.858 14.2267 223.498 13.8533 223.045 13.6C222.591 13.3333 222.105 13.2 221.585 13.2C221.065 13.2 220.585 13.3267 220.145 13.58C219.705 13.8333 219.345 14.2067 219.065 14.7C218.798 15.18 218.665 15.7533 218.665 16.42C218.665 17.0867 218.798 17.6733 219.065 18.18C219.345 18.6733 219.705 19.0533 220.145 19.32C220.598 19.5867 221.078 19.72 221.585 19.72C222.105 19.72 222.591 19.5933 223.045 19.34C223.498 19.0733 223.858 18.7 224.125 18.22C224.391 17.7267 224.525 17.14 224.525 16.46ZM236.219 10.76C237.539 10.76 238.606 11.18 239.419 12.02C240.233 12.8467 240.639 14.0067 240.639 15.5V22H237.839V15.88C237.839 15 237.619 14.3267 237.179 13.86C236.739 13.38 236.139 13.14 235.379 13.14C234.606 13.14 233.993 13.38 233.539 13.86C233.099 14.3267 232.879 15 232.879 15.88V22H230.079V10.92H232.879V12.3C233.253 11.82 233.726 11.4467 234.299 11.18C234.886 10.9 235.526 10.76 236.219 10.76ZM253.602 16.22C253.602 16.62 253.575 16.98 253.522 17.3H245.422C245.489 18.1 245.769 18.7267 246.262 19.18C246.755 19.6333 247.362 19.86 248.082 19.86C249.122 19.86 249.862 19.4133 250.302 18.52H253.322C253.002 19.5867 252.389 20.4667 251.482 21.16C250.575 21.84 249.462 22.18 248.142 22.18C247.075 22.18 246.115 21.9467 245.262 21.48C244.422 21 243.762 20.3267 243.282 19.46C242.815 18.5933 242.582 17.5933 242.582 16.46C242.582 15.3133 242.815 14.3067 243.282 13.44C243.749 12.5733 244.402 11.9067 245.242 11.44C246.082 10.9733 247.049 10.74 248.142 10.74C249.195 10.74 250.135 10.9667 250.962 11.42C251.802 11.8733 252.449 12.52 252.902 13.36C253.369 14.1867 253.602 15.14 253.602 16.22ZM250.702 15.42C250.689 14.7 250.429 14.1267 249.922 13.7C249.415 13.26 248.795 13.04 248.062 13.04C247.369 13.04 246.782 13.2533 246.302 13.68C245.835 14.0933 245.549 14.6733 245.442 15.42H250.702ZM258.446 12.64C258.806 12.0533 259.272 11.5933 259.846 11.26C260.432 10.9267 261.099 10.76 261.846 10.76V13.7H261.106C260.226 13.7 259.559 13.9067 259.106 14.32C258.666 14.7333 258.446 15.4533 258.446 16.48V22H255.646V10.92H258.446V12.64Z" fill="white"/>
<path d="M150.181 42.3776L133.439 45.7699L142.422 31.2071L144.521 38.1448L144.57 38.3059L144.706 38.4047L150.181 42.3776Z" fill="#13C6BF" stroke="white"/>
<path d="M59.52 53.04V62.84C59.52 64.2 59.1267 65.26 58.34 66.02C57.5533 66.7667 56.5 67.14 55.18 67.14C53.8467 67.14 52.7667 66.7533 51.94 65.98C51.1267 65.2067 50.72 64.1267 50.72 62.74H53.52C53.5333 63.34 53.6733 63.8067 53.94 64.14C54.22 64.4733 54.62 64.64 55.14 64.64C55.6467 64.64 56.0333 64.48 56.3 64.16C56.5667 63.84 56.7 63.4 56.7 62.84V53.04H59.52ZM67.7063 67.18C66.6396 67.18 65.6796 66.9467 64.8263 66.48C63.9729 66 63.2996 65.3267 62.8063 64.46C62.3263 63.5933 62.0863 62.5933 62.0863 61.46C62.0863 60.3267 62.3329 59.3267 62.8263 58.46C63.3329 57.5933 64.0196 56.9267 64.8863 56.46C65.7529 55.98 66.7196 55.74 67.7863 55.74C68.8529 55.74 69.8196 55.98 70.6863 56.46C71.5529 56.9267 72.2329 57.5933 72.7263 58.46C73.2329 59.3267 73.4863 60.3267 73.4863 61.46C73.4863 62.5933 73.2263 63.5933 72.7062 64.46C72.1996 65.3267 71.5063 66 70.6263 66.48C69.7596 66.9467 68.7863 67.18 67.7063 67.18ZM67.7063 64.74C68.2129 64.74 68.6863 64.62 69.1263 64.38C69.5796 64.1267 69.9396 63.7533 70.2063 63.26C70.4729 62.7667 70.6063 62.1667 70.6063 61.46C70.6063 60.4067 70.3263 59.6 69.7663 59.04C69.2196 58.4667 68.5463 58.18 67.7463 58.18C66.9463 58.18 66.2729 58.4667 65.7263 59.04C65.1929 59.6 64.9263 60.4067 64.9263 61.46C64.9263 62.5133 65.1863 63.3267 65.7063 63.9C66.2396 64.46 66.9063 64.74 67.7063 64.74ZM74.8202 61.42C74.8202 60.3 75.0402 59.3067 75.4802 58.44C75.9335 57.5733 76.5402 56.9067 77.3002 56.44C78.0735 55.9733 78.9335 55.74 79.8802 55.74C80.7068 55.74 81.4268 55.9067 82.0402 56.24C82.6668 56.5733 83.1668 56.9933 83.5402 57.5V55.92H86.3602V67H83.5402V65.38C83.1802 65.9 82.6802 66.3333 82.0402 66.68C81.4135 67.0133 80.6868 67.18 79.8602 67.18C78.9268 67.18 78.0735 66.94 77.3002 66.46C76.5402 65.98 75.9335 65.3067 75.4802 64.44C75.0402 63.56 74.8202 62.5533 74.8202 61.42ZM83.5402 61.46C83.5402 60.78 83.4068 60.2 83.1402 59.72C82.8735 59.2267 82.5135 58.8533 82.0602 58.6C81.6068 58.3333 81.1202 58.2 80.6002 58.2C80.0802 58.2 79.6002 58.3267 79.1602 58.58C78.7202 58.8333 78.3602 59.2067 78.0802 59.7C77.8135 60.18 77.6802 60.7533 77.6802 61.42C77.6802 62.0867 77.8135 62.6733 78.0802 63.18C78.3602 63.6733 78.7202 64.0533 79.1602 64.32C79.6135 64.5867 80.0935 64.72 80.6002 64.72C81.1202 64.72 81.6068 64.5933 82.0602 64.34C82.5135 64.0733 82.8735 63.7 83.1402 63.22C83.4068 62.7267 83.5402 62.14 83.5402 61.46ZM77.3802 54.86C77.5002 53.98 77.7735 53.3267 78.2002 52.9C78.6402 52.46 79.1935 52.24 79.8602 52.24C80.1402 52.24 80.3868 52.2867 80.6002 52.38C80.8135 52.46 81.0535 52.58 81.3202 52.74C81.7202 52.9933 82.0535 53.12 82.3202 53.12C82.8135 53.12 83.1002 52.8333 83.1802 52.26H84.6802C84.5602 53.14 84.2802 53.8 83.8402 54.24C83.4135 54.6667 82.8668 54.88 82.2002 54.88C81.9202 54.88 81.6735 54.84 81.4602 54.76C81.2468 54.6667 81.0068 54.54 80.7402 54.38C80.3535 54.1133 80.0202 53.98 79.7402 53.98C79.2468 53.98 78.9535 54.2733 78.8602 54.86H77.3802ZM94.0148 67.18C92.9482 67.18 91.9882 66.9467 91.1348 66.48C90.2815 66 89.6082 65.3267 89.1148 64.46C88.6348 63.5933 88.3948 62.5933 88.3948 61.46C88.3948 60.3267 88.6415 59.3267 89.1348 58.46C89.6415 57.5933 90.3282 56.9267 91.1948 56.46C92.0615 55.98 93.0282 55.74 94.0948 55.74C95.1615 55.74 96.1282 55.98 96.9948 56.46C97.8615 56.9267 98.5415 57.5933 99.0348 58.46C99.5415 59.3267 99.7948 60.3267 99.7948 61.46C99.7948 62.5933 99.5348 63.5933 99.0148 64.46C98.5082 65.3267 97.8148 66 96.9348 66.48C96.0682 66.9467 95.0948 67.18 94.0148 67.18ZM94.0148 64.74C94.5215 64.74 94.9948 64.62 95.4348 64.38C95.8882 64.1267 96.2482 63.7533 96.5148 63.26C96.7815 62.7667 96.9148 62.1667 96.9148 61.46C96.9148 60.4067 96.6348 59.6 96.0748 59.04C95.5282 58.4667 94.8548 58.18 94.0548 58.18C93.2548 58.18 92.5815 58.4667 92.0348 59.04C91.5015 59.6 91.2348 60.4067 91.2348 61.46C91.2348 62.5133 91.4948 63.3267 92.0148 63.9C92.5482 64.46 93.2148 64.74 94.0148 64.74ZM114.754 53.04V62.84C114.754 64.2 114.361 65.26 113.574 66.02C112.788 66.7667 111.734 67.14 110.414 67.14C109.081 67.14 108.001 66.7533 107.174 65.98C106.361 65.2067 105.954 64.1267 105.954 62.74H108.754C108.768 63.34 108.908 63.8067 109.174 64.14C109.454 64.4733 109.854 64.64 110.374 64.64C110.881 64.64 111.268 64.48 111.534 64.16C111.801 63.84 111.934 63.4 111.934 62.84V53.04H114.754ZM120.821 57.64C121.181 57.0533 121.647 56.5933 122.221 56.26C122.807 55.9267 123.474 55.76 124.221 55.76V58.7H123.481C122.601 58.7 121.934 58.9067 121.481 59.32C121.041 59.7333 120.821 60.4533 120.821 61.48V67H118.021V55.92H120.821V57.64Z" fill="#BA68C8"/>
</svg>
