<svg width="376" height="295" viewBox="0 0 376 295" fill="none" xmlns="http://www.w3.org/2000/svg">
<g opacity="0.8">
<circle cx="20" cy="20" r="20" fill="#BA68C8" fill-opacity="0.13"/>
<circle cx="68" cy="20" r="20" fill="#BA68C8" fill-opacity="0.13"/>
<circle cx="116" cy="20" r="20" fill="#BA68C8" fill-opacity="0.13"/>
<circle cx="164" cy="20" r="20" fill="#BA68C8" fill-opacity="0.13"/>
<circle cx="212" cy="20" r="20" fill="#BA68C8" fill-opacity="0.13"/>
<circle cx="260" cy="20" r="20" fill="#BA68C8" fill-opacity="0.13"/>
<circle cx="308" cy="20" r="20" fill="#BA68C8" fill-opacity="0.13"/>
<circle cx="356" cy="20" r="20" fill="#BA68C8" fill-opacity="0.13"/>
<circle cx="19.5" cy="77.5" r="17.5" fill="#BA68C8" fill-opacity="0.13"/>
<circle cx="67.5" cy="77.5" r="17.5" fill="#BA68C8" fill-opacity="0.13"/>
<circle cx="115.5" cy="77.5" r="17.5" fill="#BA68C8" fill-opacity="0.13"/>
<circle cx="163.5" cy="77.5" r="17.5" fill="#BA68C8" fill-opacity="0.13"/>
<circle cx="211.5" cy="77.5" r="17.5" fill="#BA68C8" fill-opacity="0.13"/>
<circle cx="259.5" cy="77.5" r="17.5" fill="#BA68C8" fill-opacity="0.13"/>
<circle cx="307.5" cy="77.5" r="17.5" fill="#BA68C8" fill-opacity="0.13"/>
<circle cx="355.5" cy="77.5" r="17.5" fill="#BA68C8" fill-opacity="0.13"/>
<circle cx="20" cy="130" r="15" fill="#BA68C8" fill-opacity="0.13"/>
<circle cx="68" cy="130" r="15" fill="#BA68C8" fill-opacity="0.13"/>
<circle cx="116" cy="130" r="15" fill="#BA68C8" fill-opacity="0.13"/>
<circle cx="164" cy="130" r="15" fill="#BA68C8" fill-opacity="0.13"/>
<circle cx="212" cy="130" r="15" fill="#BA68C8" fill-opacity="0.13"/>
<circle cx="260" cy="130" r="15" fill="#BA68C8" fill-opacity="0.13"/>
<circle cx="308" cy="130" r="15" fill="#BA68C8" fill-opacity="0.13"/>
<circle cx="356" cy="130" r="15" fill="#BA68C8" fill-opacity="0.13"/>
<circle cx="19.5" cy="177.5" r="12.5" fill="#BA68C8" fill-opacity="0.13"/>
<circle cx="67.5" cy="177.5" r="12.5" fill="#BA68C8" fill-opacity="0.13"/>
<circle cx="115.5" cy="177.5" r="12.5" fill="#BA68C8" fill-opacity="0.13"/>
<circle cx="163.5" cy="177.5" r="12.5" fill="#BA68C8" fill-opacity="0.13"/>
<circle cx="211.5" cy="177.5" r="12.5" fill="#BA68C8" fill-opacity="0.13"/>
<circle cx="259.5" cy="177.5" r="12.5" fill="#BA68C8" fill-opacity="0.13"/>
<circle cx="307.5" cy="177.5" r="12.5" fill="#BA68C8" fill-opacity="0.13"/>
<circle cx="355.5" cy="177.5" r="12.5" fill="#BA68C8" fill-opacity="0.13"/>
<circle cx="20" cy="220" r="10" fill="#BA68C8" fill-opacity="0.13"/>
<circle cx="68" cy="220" r="10" fill="#BA68C8" fill-opacity="0.13"/>
<circle cx="116" cy="220" r="10" fill="#BA68C8" fill-opacity="0.13"/>
<circle cx="164" cy="220" r="10" fill="#BA68C8" fill-opacity="0.13"/>
<circle cx="212" cy="220" r="10" fill="#BA68C8" fill-opacity="0.13"/>
<circle cx="260" cy="220" r="10" fill="#BA68C8" fill-opacity="0.13"/>
<circle cx="308" cy="220" r="10" fill="#BA68C8" fill-opacity="0.13"/>
<circle cx="356" cy="220" r="10" fill="#BA68C8" fill-opacity="0.13"/>
<circle cx="19.5" cy="257.5" r="7.5" fill="#BA68C8" fill-opacity="0.13"/>
<circle cx="67.5" cy="257.5" r="7.5" fill="#BA68C8" fill-opacity="0.13"/>
<circle cx="115.5" cy="257.5" r="7.5" fill="#BA68C8" fill-opacity="0.13"/>
<circle cx="163.5" cy="257.5" r="7.5" fill="#BA68C8" fill-opacity="0.13"/>
<circle cx="211.5" cy="257.5" r="7.5" fill="#BA68C8" fill-opacity="0.13"/>
<circle cx="259.5" cy="257.5" r="7.5" fill="#BA68C8" fill-opacity="0.13"/>
<circle cx="307.5" cy="257.5" r="7.5" fill="#BA68C8" fill-opacity="0.13"/>
<circle cx="355.5" cy="257.5" r="7.5" fill="#BA68C8" fill-opacity="0.13"/>
<circle cx="20" cy="290" r="5" fill="#BA68C8" fill-opacity="0.13"/>
<circle cx="68" cy="290" r="5" fill="#BA68C8" fill-opacity="0.13"/>
<circle cx="116" cy="290" r="5" fill="#BA68C8" fill-opacity="0.13"/>
<circle cx="164" cy="290" r="5" fill="#BA68C8" fill-opacity="0.13"/>
<circle cx="212" cy="290" r="5" fill="#BA68C8" fill-opacity="0.13"/>
<circle cx="260" cy="290" r="5" fill="#BA68C8" fill-opacity="0.13"/>
<circle cx="308" cy="290" r="5" fill="#BA68C8" fill-opacity="0.13"/>
<circle cx="356" cy="290" r="5" fill="#BA68C8" fill-opacity="0.13"/>
</g>
</svg>
