<svg width="433" height="287" viewBox="0 0 433 287" fill="none" xmlns="http://www.w3.org/2000/svg">
<path d="M14.291 35.8244C14.3959 36.0603 14.4483 36.27 14.4483 36.4535C14.4483 36.8204 14.2976 37.1349 13.9962 37.397C13.7079 37.646 13.3737 37.7705 12.9936 37.7705C12.7446 37.7705 12.5087 37.705 12.286 37.5739C12.0632 37.4298 11.8928 37.2201 11.7749 36.9449L10.733 34.6253H4.06911L3.02726 36.9449C2.90932 37.2201 2.73895 37.4298 2.51616 37.5739C2.30648 37.705 2.07059 37.7705 1.80849 37.7705C1.42845 37.7705 1.08772 37.646 0.786301 37.397C0.484886 37.1349 0.334178 36.8204 0.334178 36.4535C0.334178 36.27 0.386598 36.0603 0.491438 35.8244L5.79897 24.6786C5.94313 24.3641 6.15936 24.1282 6.44767 23.9709C6.73598 23.8006 7.04395 23.7154 7.37158 23.7154C7.71231 23.7154 8.02683 23.8006 8.31514 23.9709C8.60345 24.1413 8.82623 24.3772 8.98349 24.6786L14.291 35.8244ZM5.11096 32.3057H9.69116L7.41089 27.1948L5.11096 32.3057ZM24.139 23.735C24.5977 23.735 24.9646 23.8595 25.2398 24.1085C25.5281 24.3575 25.6723 24.6852 25.6723 25.0914V36.4142C25.6723 36.8335 25.5347 37.1742 25.2595 37.4363C24.9974 37.6853 24.6435 37.8098 24.198 37.8098C23.7524 37.8098 23.392 37.6853 23.1168 37.4363C22.8547 37.1742 22.7236 36.8335 22.7236 36.4142V36.2569C22.4353 36.7549 22.0225 37.148 21.4852 37.4363C20.961 37.7116 20.3647 37.8492 19.6964 37.8492C18.8708 37.8492 18.1303 37.6395 17.4751 37.2201C16.8329 36.7876 16.3284 36.1914 15.9615 35.4313C15.6076 34.6581 15.4307 33.7735 15.4307 32.7775C15.4307 31.7815 15.6076 30.91 15.9615 30.1631C16.3284 29.403 16.8329 28.8198 17.4751 28.4135C18.1172 28.0073 18.8577 27.8042 19.6964 27.8042C20.3516 27.8042 20.9414 27.9418 21.4656 28.217C22.0029 28.4922 22.4157 28.8788 22.704 29.3768V25.0324C22.704 24.6393 22.835 24.3248 23.0971 24.0889C23.3592 23.853 23.7065 23.735 24.139 23.735ZM20.5613 35.5885C21.2559 35.5885 21.7866 35.3526 22.1536 34.8809C22.5336 34.396 22.7236 33.708 22.7236 32.8168C22.7236 31.9257 22.5336 31.2442 22.1536 30.7724C21.7866 30.3007 21.2559 30.0648 20.5613 30.0648C19.8668 30.0648 19.3294 30.3007 18.9494 30.7724C18.5694 31.2311 18.3793 31.8995 18.3793 32.7775C18.3793 33.6687 18.5694 34.3632 18.9494 34.8612C19.3294 35.3461 19.8668 35.5885 20.5613 35.5885ZM32.5973 37.8492C31.5751 37.8492 30.6774 37.646 29.9042 37.2398C29.131 36.8204 28.5347 36.2372 28.1153 35.4903C27.696 34.7302 27.4863 33.839 27.4863 32.8168C27.4863 31.7946 27.696 30.91 28.1153 30.1631C28.5347 29.403 29.131 28.8198 29.9042 28.4135C30.6774 28.0073 31.5751 27.8042 32.5973 27.8042C33.6195 27.8042 34.5171 28.0073 35.2903 28.4135C36.0635 28.8198 36.6598 29.403 37.0792 30.1631C37.4985 30.91 37.7082 31.7946 37.7082 32.8168C37.7082 33.839 37.4985 34.7302 37.0792 35.4903C36.6598 36.2372 36.0635 36.8204 35.2903 37.2398C34.5171 37.646 33.6195 37.8492 32.5973 37.8492ZM32.5973 35.5885C34.0388 35.5885 34.7596 34.6646 34.7596 32.8168C34.7596 31.8864 34.5696 31.1918 34.1895 30.7331C33.8226 30.2745 33.2918 30.0451 32.5973 30.0451C31.1557 30.0451 30.4349 30.969 30.4349 32.8168C30.4349 34.6646 31.1557 35.5885 32.5973 35.5885ZM45.4905 27.8042C46.3292 27.8042 47.0696 28.0073 47.7118 28.4135C48.3539 28.8198 48.8519 29.403 49.2057 30.1631C49.5727 30.91 49.7561 31.7815 49.7561 32.7775C49.7561 33.7735 49.5727 34.6581 49.2057 35.4313C48.8519 36.1914 48.3473 36.7876 47.6921 37.2201C47.0499 37.6395 46.3161 37.8492 45.4905 37.8492C44.8221 37.8492 44.2193 37.7116 43.682 37.4363C43.1447 37.148 42.7318 36.7549 42.4435 36.2569V36.4142C42.4435 36.8335 42.3125 37.1742 42.0504 37.4363C41.7883 37.6853 41.4344 37.8098 40.9889 37.8098C40.5433 37.8098 40.1829 37.6853 39.9077 37.4363C39.6456 37.1742 39.5146 36.8335 39.5146 36.4142V25.0914C39.5146 24.6852 39.6522 24.3575 39.9274 24.1085C40.2157 23.8595 40.5892 23.735 41.0478 23.735C41.4803 23.735 41.8276 23.853 42.0897 24.0889C42.3518 24.3248 42.4828 24.6393 42.4828 25.0324V29.3374C42.7712 28.8526 43.1774 28.4791 43.7016 28.217C44.2389 27.9418 44.8352 27.8042 45.4905 27.8042ZM44.6255 35.5885C45.3201 35.5885 45.8574 35.3461 46.2374 34.8612C46.6175 34.3632 46.8075 33.6687 46.8075 32.7775C46.8075 31.8995 46.6175 31.2311 46.2374 30.7724C45.8574 30.3007 45.3201 30.0648 44.6255 30.0648C43.931 30.0648 43.3936 30.3072 43.0136 30.7921C42.6336 31.2639 42.4435 31.9388 42.4435 32.8168C42.4435 33.708 42.6336 34.396 43.0136 34.8809C43.3936 35.3526 43.931 35.5885 44.6255 35.5885ZM59.3152 34.8219C59.5773 34.8219 59.787 34.9267 59.9443 35.1364C60.1146 35.3461 60.1998 35.6147 60.1998 35.9424C60.1998 36.1652 60.1343 36.3748 60.0032 36.5714C59.8722 36.7549 59.6887 36.9121 59.4528 37.0432C59.0073 37.2791 58.4896 37.4757 57.8999 37.6329C57.3102 37.7771 56.7663 37.8492 56.2683 37.8492C55.2199 37.8492 54.3026 37.646 53.5163 37.2398C52.7431 36.8335 52.1468 36.2569 51.7274 35.5099C51.3081 34.7498 51.0984 33.8587 51.0984 32.8365C51.0984 31.8536 51.3015 30.9821 51.7078 30.222C52.114 29.4619 52.6775 28.8722 53.3983 28.4529C54.1191 28.0204 54.9381 27.8042 55.8555 27.8042C56.7335 27.8042 57.5002 28.0007 58.1554 28.3939C58.8238 28.7739 59.3414 29.3243 59.7084 30.0451C60.0753 30.7528 60.2588 31.585 60.2588 32.5416C60.2588 32.8299 60.1867 33.0527 60.0426 33.21C59.9115 33.3541 59.7215 33.4262 59.4725 33.4262H53.9684C54.0601 34.1994 54.296 34.7629 54.676 35.1168C55.0561 35.4575 55.6 35.6279 56.3076 35.6279C56.6877 35.6279 57.0284 35.582 57.3298 35.4903C57.6312 35.3985 57.9654 35.274 58.3323 35.1168C58.5158 35.0381 58.6927 34.9726 58.8631 34.9202C59.0335 34.8547 59.1842 34.8219 59.3152 34.8219ZM55.9341 29.8485C55.3706 29.8485 54.9185 30.032 54.5778 30.3989C54.237 30.7528 54.0339 31.2704 53.9684 31.9519H57.7623C57.723 31.2573 57.546 30.7331 57.2315 30.3793C56.9301 30.0255 56.4976 29.8485 55.9341 29.8485ZM69.0359 37.8098C68.6034 37.8098 68.243 37.6919 67.9547 37.456C67.6795 37.2201 67.5419 36.8728 67.5419 36.4142V29.2392C67.5419 28.7805 67.6861 28.4332 67.9744 28.1973C68.2627 27.9614 68.6165 27.8435 69.0359 27.8435C69.4552 27.8435 69.8025 27.9614 70.0777 28.1973C70.366 28.4332 70.5102 28.7805 70.5102 29.2392V36.4142C70.5102 36.8728 70.366 37.2201 70.0777 37.456C69.8025 37.6919 69.4552 37.8098 69.0359 37.8098ZM69.0359 26.2709C68.5117 26.2709 68.0989 26.1398 67.7974 25.8777C67.496 25.6025 67.3453 25.2356 67.3453 24.7769C67.3453 24.3182 67.496 23.9578 67.7974 23.6957C68.0989 23.4336 68.5117 23.3026 69.0359 23.3026C69.547 23.3026 69.9532 23.4402 70.2546 23.7154C70.5692 23.9775 70.7264 24.3313 70.7264 24.7769C70.7264 25.2356 70.5757 25.6025 70.2743 25.8777C69.9729 26.1398 69.5601 26.2709 69.0359 26.2709ZM74.2766 37.8098C73.8441 37.8098 73.4837 37.6919 73.1954 37.456C72.9202 37.2201 72.7826 36.8728 72.7826 36.4142V25.1307C72.7826 24.6721 72.9202 24.3248 73.1954 24.0889C73.4837 23.853 73.8441 23.735 74.2766 23.735C74.696 23.735 75.0432 23.853 75.3185 24.0889C75.6068 24.3248 75.7509 24.6721 75.7509 25.1307V36.4142C75.7509 36.8728 75.6068 37.2201 75.3185 37.456C75.0432 37.6919 74.696 37.8098 74.2766 37.8098ZM79.5173 37.8098C79.0849 37.8098 78.7245 37.6919 78.4362 37.456C78.161 37.2201 78.0234 36.8728 78.0234 36.4142V25.1307C78.0234 24.6721 78.161 24.3248 78.4362 24.0889C78.7245 23.853 79.0849 23.735 79.5173 23.735C79.9367 23.735 80.284 23.853 80.5592 24.0889C80.8475 24.3248 80.9916 24.6721 80.9916 25.1307V36.4142C80.9916 36.8728 80.8475 37.2201 80.5592 37.456C80.284 37.6919 79.9367 37.8098 79.5173 37.8098ZM91.0681 27.8435C91.5268 27.8435 91.8872 27.968 92.1493 28.217C92.4245 28.466 92.5621 28.8067 92.5621 29.2392V36.4535C92.5621 36.8597 92.418 37.1874 92.1296 37.4363C91.8544 37.6853 91.494 37.8098 91.0485 37.8098C90.6291 37.8098 90.2949 37.6919 90.0459 37.456C89.7969 37.2201 89.6724 36.9056 89.6724 36.5124V36.3159C89.371 36.8139 88.9713 37.1939 88.4733 37.456C87.9885 37.7181 87.438 37.8492 86.8221 37.8492C85.6033 37.8492 84.6925 37.515 84.0897 36.8466C83.5 36.1652 83.2051 35.143 83.2051 33.78V29.2392C83.2051 28.8067 83.3362 28.466 83.5983 28.217C83.8735 27.968 84.2404 27.8435 84.6991 27.8435C85.1578 27.8435 85.5182 27.968 85.7803 28.217C86.0424 28.466 86.1734 28.8067 86.1734 29.2392V33.839C86.1734 34.4156 86.2914 34.8416 86.5272 35.1168C86.7762 35.392 87.1497 35.5296 87.6477 35.5296C88.2243 35.5296 88.6896 35.333 89.0434 34.9398C89.4103 34.5467 89.5938 34.029 89.5938 33.3869V29.2392C89.5938 28.8067 89.7249 28.466 89.987 28.217C90.2491 27.968 90.6095 27.8435 91.0681 27.8435ZM98.4961 37.8492C97.6967 37.8492 97.0021 37.7836 96.4124 37.6526C95.8226 37.5215 95.305 37.3118 94.8594 37.0235C94.6628 36.9056 94.5121 36.7483 94.4073 36.5518C94.3025 36.3552 94.25 36.1324 94.25 35.8834C94.25 35.582 94.3352 35.333 94.5056 35.1364C94.676 34.9267 94.8856 34.8219 95.1346 34.8219C95.305 34.8219 95.4754 34.8547 95.6457 34.9202C95.8161 34.9726 95.993 35.0381 96.1765 35.1168C96.5434 35.2871 96.9038 35.4247 97.2576 35.5296C97.6115 35.6213 98.0505 35.6672 98.5747 35.6672C99.0334 35.6672 99.3872 35.5951 99.6362 35.4509C99.8983 35.3068 100.029 35.1102 100.029 34.8612C100.029 34.6777 99.9704 34.5336 99.8524 34.4287C99.7476 34.3108 99.5445 34.206 99.2431 34.1142C98.9416 34.0225 98.4633 33.9111 97.8081 33.78C96.6417 33.5573 95.803 33.2231 95.2919 32.7775C94.7808 32.3319 94.5252 31.7095 94.5252 30.91C94.5252 30.3203 94.7022 29.7896 95.056 29.3178C95.4229 28.846 95.9209 28.4791 96.55 28.217C97.179 27.9418 97.8867 27.8042 98.673 27.8042C99.2365 27.8042 99.7869 27.8762 100.324 28.0204C100.862 28.1645 101.34 28.3677 101.759 28.6298C102.165 28.8788 102.369 29.2457 102.369 29.7306C102.369 30.0451 102.283 30.3072 102.113 30.5169C101.943 30.7266 101.733 30.8314 101.484 30.8314C101.183 30.8314 100.822 30.7135 100.403 30.4776C100.075 30.3072 99.7738 30.1827 99.4986 30.1041C99.2365 30.0124 98.922 29.9665 98.555 29.9665C98.1488 29.9665 97.8277 30.0451 97.5918 30.2024C97.3559 30.3465 97.238 30.5497 97.238 30.8118C97.238 31.087 97.3756 31.2966 97.6508 31.4408C97.926 31.585 98.4568 31.7291 99.2431 31.8733C100.121 32.0436 100.809 32.2533 101.307 32.5023C101.805 32.7382 102.165 33.0396 102.388 33.4066C102.611 33.7735 102.722 34.2387 102.722 34.8022C102.722 35.7327 102.336 36.4731 101.563 37.0235C100.803 37.5739 99.7804 37.8492 98.4961 37.8492ZM109.689 35.6475C110.083 35.6737 110.371 35.772 110.554 35.9424C110.738 36.1127 110.83 36.3617 110.83 36.6894C110.83 37.0694 110.679 37.3577 110.378 37.5543C110.076 37.7509 109.644 37.8295 109.08 37.7902L108.53 37.7509C106.236 37.5674 105.09 36.3683 105.09 34.1535V30.2613H104.303C103.871 30.2613 103.543 30.1696 103.32 29.9861C103.098 29.7896 102.986 29.5144 102.986 29.1605C102.986 28.7936 103.098 28.5184 103.32 28.3349C103.543 28.1383 103.871 28.04 104.303 28.04H105.09V26.5068C105.09 26.0743 105.221 25.7336 105.483 25.4846C105.758 25.2356 106.125 25.1111 106.584 25.1111C107.042 25.1111 107.403 25.2356 107.665 25.4846C107.927 25.7336 108.058 26.0743 108.058 26.5068V28.04H109.434C110.325 28.04 110.771 28.4135 110.771 29.1605C110.771 29.5144 110.659 29.7896 110.436 29.9861C110.214 30.1696 109.88 30.2613 109.434 30.2613H108.058V34.3698C108.058 34.7629 108.15 35.0643 108.333 35.274C108.517 35.4706 108.785 35.582 109.139 35.6082L109.689 35.6475ZM117.685 27.8435C118.078 27.8173 118.386 27.909 118.608 28.1187C118.844 28.3153 118.962 28.6167 118.962 29.0229C118.962 29.4554 118.857 29.7765 118.648 29.9861C118.438 30.1958 118.065 30.3269 117.527 30.3793L116.938 30.4383C116.217 30.5169 115.693 30.7528 115.365 31.1459C115.05 31.5391 114.893 32.0436 114.893 32.6596V36.4142C114.893 36.8728 114.749 37.2201 114.461 37.456C114.186 37.6919 113.838 37.8098 113.419 37.8098C112.986 37.8098 112.626 37.6919 112.338 37.456C112.063 37.2201 111.925 36.8728 111.925 36.4142V29.1998C111.925 28.7674 112.069 28.4332 112.357 28.1973C112.646 27.9614 112.993 27.8435 113.399 27.8435C113.792 27.8435 114.12 27.9614 114.382 28.1973C114.644 28.4201 114.775 28.7346 114.775 29.1409V29.6716C115.011 29.1081 115.365 28.6756 115.837 28.3742C116.322 28.0728 116.846 27.9024 117.409 27.8631L117.685 27.8435ZM124.159 27.8042C125.574 27.8042 126.623 28.1514 127.304 28.846C127.986 29.5275 128.327 30.5759 128.327 31.9912V36.4338C128.327 36.8663 128.202 37.207 127.953 37.456C127.704 37.6919 127.357 37.8098 126.911 37.8098C126.492 37.8098 126.151 37.6853 125.889 37.4363C125.64 37.1742 125.516 36.8401 125.516 36.4338V36.2962C125.319 36.7811 124.991 37.1611 124.533 37.4363C124.074 37.7116 123.537 37.8492 122.921 37.8492C122.265 37.8492 121.669 37.7181 121.132 37.456C120.608 37.1939 120.188 36.827 119.874 36.3552C119.572 35.8834 119.422 35.3592 119.422 34.7826C119.422 34.0749 119.599 33.5179 119.952 33.1117C120.319 32.7054 120.903 32.4106 121.702 32.2271C122.501 32.0436 123.596 31.9519 124.985 31.9519H125.496V31.5981C125.496 31.0476 125.371 30.6479 125.122 30.3989C124.886 30.15 124.487 30.0255 123.923 30.0255C123.36 30.0255 122.547 30.222 121.486 30.6152C121.184 30.7593 120.929 30.8314 120.719 30.8314C120.431 30.8314 120.201 30.7331 120.031 30.5366C119.861 30.3269 119.776 30.0582 119.776 29.7306C119.776 29.4685 119.834 29.2523 119.952 29.0819C120.07 28.9115 120.26 28.7543 120.522 28.6101C120.981 28.3611 121.538 28.1645 122.193 28.0204C122.862 27.8762 123.517 27.8042 124.159 27.8042ZM123.569 35.8048C124.146 35.8048 124.611 35.6147 124.965 35.2347C125.319 34.8416 125.496 34.337 125.496 33.7211V33.3869H125.162C124.1 33.3869 123.353 33.4721 122.921 33.6424C122.501 33.8128 122.292 34.1208 122.292 34.5663C122.292 34.9333 122.41 35.2347 122.646 35.4706C122.895 35.6934 123.202 35.8048 123.569 35.8048ZM135.912 35.6475C136.305 35.6737 136.594 35.772 136.777 35.9424C136.961 36.1127 137.052 36.3617 137.052 36.6894C137.052 37.0694 136.902 37.3577 136.6 37.5543C136.299 37.7509 135.866 37.8295 135.303 37.7902L134.753 37.7509C132.459 37.5674 131.312 36.3683 131.312 34.1535V30.2613H130.526C130.094 30.2613 129.766 30.1696 129.543 29.9861C129.321 29.7896 129.209 29.5144 129.209 29.1605C129.209 28.7936 129.321 28.5184 129.543 28.3349C129.766 28.1383 130.094 28.04 130.526 28.04H131.312V26.5068C131.312 26.0743 131.444 25.7336 131.706 25.4846C131.981 25.2356 132.348 25.1111 132.806 25.1111C133.265 25.1111 133.626 25.2356 133.888 25.4846C134.15 25.7336 134.281 26.0743 134.281 26.5068V28.04H135.657C136.548 28.04 136.994 28.4135 136.994 29.1605C136.994 29.5144 136.882 29.7896 136.659 29.9861C136.437 30.1696 136.102 30.2613 135.657 30.2613H134.281V34.3698C134.281 34.7629 134.373 35.0643 134.556 35.274C134.739 35.4706 135.008 35.582 135.362 35.6082L135.912 35.6475ZM142.787 37.8492C141.765 37.8492 140.867 37.646 140.094 37.2398C139.321 36.8204 138.724 36.2372 138.305 35.4903C137.886 34.7302 137.676 33.839 137.676 32.8168C137.676 31.7946 137.886 30.91 138.305 30.1631C138.724 29.403 139.321 28.8198 140.094 28.4135C140.867 28.0073 141.765 27.8042 142.787 27.8042C143.809 27.8042 144.707 28.0073 145.48 28.4135C146.253 28.8198 146.85 29.403 147.269 30.1631C147.688 30.91 147.898 31.7946 147.898 32.8168C147.898 33.839 147.688 34.7302 147.269 35.4903C146.85 36.2372 146.253 36.8204 145.48 37.2398C144.707 37.646 143.809 37.8492 142.787 37.8492ZM142.787 35.5885C144.228 35.5885 144.949 34.6646 144.949 32.8168C144.949 31.8864 144.759 31.1918 144.379 30.7331C144.012 30.2745 143.482 30.0451 142.787 30.0451C141.345 30.0451 140.625 30.969 140.625 32.8168C140.625 34.6646 141.345 35.5885 142.787 35.5885ZM155.464 27.8435C155.857 27.8173 156.165 27.909 156.388 28.1187C156.624 28.3153 156.742 28.6167 156.742 29.0229C156.742 29.4554 156.637 29.7765 156.427 29.9861C156.217 30.1958 155.844 30.3269 155.307 30.3793L154.717 30.4383C153.996 30.5169 153.472 30.7528 153.144 31.1459C152.83 31.5391 152.673 32.0436 152.673 32.6596V36.4142C152.673 36.8728 152.528 37.2201 152.24 37.456C151.965 37.6919 151.618 37.8098 151.198 37.8098C150.766 37.8098 150.405 37.6919 150.117 37.456C149.842 37.2201 149.704 36.8728 149.704 36.4142V29.1998C149.704 28.7674 149.848 28.4332 150.137 28.1973C150.425 27.9614 150.772 27.8435 151.179 27.8435C151.572 27.8435 151.899 27.9614 152.161 28.1973C152.424 28.4201 152.555 28.7346 152.555 29.1409V29.6716C152.79 29.1081 153.144 28.6756 153.616 28.3742C154.101 28.0728 154.625 27.9024 155.189 27.8631L155.464 27.8435Z" fill="#7400B8"/>
<path d="M305.557 30.5562C306.356 30.7921 306.972 31.2049 307.404 31.7946C307.837 32.3713 308.053 33.0789 308.053 33.9176C308.053 35.1495 307.581 36.1127 306.638 36.8073C305.694 37.5019 304.39 37.8492 302.726 37.8492C301.062 37.8492 299.758 37.5019 298.814 36.8073C297.87 36.1127 297.399 35.1495 297.399 33.9176C297.399 33.0527 297.615 32.3319 298.047 31.7553C298.48 31.1787 299.102 30.779 299.915 30.5562C299.233 30.2941 298.703 29.8879 298.323 29.3374C297.943 28.787 297.753 28.1449 297.753 27.411C297.753 26.2578 298.198 25.347 299.089 24.6786C299.98 23.9971 301.193 23.6564 302.726 23.6564C304.272 23.6564 305.484 23.9906 306.363 24.6589C307.254 25.3273 307.699 26.2447 307.699 27.411C307.699 28.158 307.509 28.8132 307.129 29.3768C306.749 29.9403 306.225 30.3334 305.557 30.5562ZM302.726 25.9957C301.324 25.9957 300.623 26.5788 300.623 27.7452C300.623 28.9246 301.324 29.5144 302.726 29.5144C304.128 29.5144 304.829 28.9246 304.829 27.7452C304.829 26.5788 304.128 25.9957 302.726 25.9957ZM302.726 35.5099C304.377 35.5099 305.203 34.9005 305.203 33.6818C305.203 32.463 304.377 31.8536 302.726 31.8536C301.075 31.8536 300.249 32.463 300.249 33.6818C300.249 34.9005 301.075 35.5099 302.726 35.5099ZM314.513 37.8688C312.835 37.8688 311.551 37.2594 310.66 36.0407C309.782 34.8219 309.343 33.0593 309.343 30.7528C309.343 28.4594 309.782 26.7033 310.66 25.4846C311.551 24.2658 312.835 23.6564 314.513 23.6564C316.19 23.6564 317.468 24.2658 318.346 25.4846C319.237 26.7033 319.683 28.4594 319.683 30.7528C319.683 33.0593 319.237 34.8219 318.346 36.0407C317.468 37.2594 316.19 37.8688 314.513 37.8688ZM314.513 35.5296C315.273 35.5296 315.823 35.1495 316.164 34.3894C316.518 33.6293 316.695 32.4171 316.695 30.7528C316.695 29.0753 316.518 27.8631 316.164 27.1161C315.823 26.3692 315.273 25.9957 314.513 25.9957C313.753 25.9957 313.196 26.3757 312.842 27.1358C312.501 27.8828 312.331 29.0884 312.331 30.7528C312.331 32.4171 312.501 33.6293 312.842 34.3894C313.196 35.1495 313.753 35.5296 314.513 35.5296ZM327.263 37.3184C326.961 37.8164 326.588 38.0654 326.142 38.0654C325.867 38.0654 325.625 37.9605 325.415 37.7509C325.218 37.5543 325.12 37.3053 325.12 37.0039C325.12 36.7549 325.199 36.4928 325.356 36.2176L332.315 24.2068C332.59 23.7088 332.957 23.4598 333.416 23.4598C333.704 23.4598 333.946 23.5647 334.143 23.7744C334.353 23.9709 334.457 24.2199 334.457 24.5213C334.457 24.7703 334.379 25.0324 334.222 25.3076L327.263 37.3184ZM324.707 32.0895C323.58 32.0895 322.696 31.7291 322.054 31.0083C321.424 30.2745 321.11 29.2129 321.11 27.8238C321.11 26.474 321.431 25.4387 322.073 24.7179C322.715 23.984 323.593 23.6171 324.707 23.6171C325.834 23.6171 326.712 23.984 327.341 24.7179C327.984 25.4387 328.305 26.4805 328.305 27.8435C328.305 29.2326 327.984 30.2876 327.341 31.0083C326.712 31.7291 325.834 32.0895 324.707 32.0895ZM324.707 30.2417C325.114 30.2417 325.408 30.0582 325.592 29.6913C325.775 29.3243 325.867 28.7084 325.867 27.8435C325.867 27.0179 325.769 26.4216 325.572 26.0546C325.389 25.6746 325.1 25.4846 324.707 25.4846C324.314 25.4846 324.026 25.668 323.842 26.035C323.659 26.4019 323.567 27.0047 323.567 27.8435C323.567 28.6953 323.659 29.3112 323.842 29.6913C324.026 30.0582 324.314 30.2417 324.707 30.2417ZM334.851 37.8295C333.724 37.8295 332.839 37.4691 332.197 36.7483C331.568 36.0145 331.253 34.9529 331.253 33.5638C331.253 32.2009 331.568 31.159 332.197 30.4383C332.839 29.7175 333.724 29.3571 334.851 29.3571C335.965 29.3571 336.843 29.724 337.485 30.4579C338.127 31.1787 338.448 32.2205 338.448 33.5835C338.448 34.9595 338.127 36.0145 337.485 36.7483C336.856 37.4691 335.978 37.8295 334.851 37.8295ZM334.851 35.9817C335.257 35.9817 335.552 35.7982 335.735 35.4313C335.919 35.0643 336.01 34.4484 336.01 33.5835C336.01 32.7447 335.912 32.1419 335.716 31.775C335.532 31.3949 335.244 31.2049 334.851 31.2049C334.457 31.2049 334.163 31.3949 333.966 31.775C333.783 32.1419 333.691 32.7447 333.691 33.5835C333.691 34.4484 333.783 35.0643 333.966 35.4313C334.149 35.7982 334.444 35.9817 334.851 35.9817Z" fill="#7400B8"/>
<rect y="41.2808" width="430.5" height="9.82877" rx="4.91438" fill="url(#paint0_linear)"/>
<path d="M283.068 41.2808H425.585C428.3 41.2808 430.5 43.481 430.5 46.1951C430.5 48.9093 428.3 51.1095 425.585 51.1095H283.068V41.2808Z" fill="black"/>
<line x1="282.085" y1="41.2808" x2="282.085" y2="9.82871" stroke="#7108B9" stroke-width="1.96575"/>
<circle cx="282.086" cy="8.84589" r="7.86301" fill="#7108B9" stroke="black" stroke-width="1.96575"/>
<path d="M14.291 92.8313C14.3959 93.0672 14.4483 93.2768 14.4483 93.4603C14.4483 93.8272 14.2976 94.1418 13.9962 94.4039C13.7079 94.6529 13.3737 94.7774 12.9936 94.7774C12.7446 94.7774 12.5087 94.7118 12.286 94.5808C12.0632 94.4366 11.8928 94.2269 11.7749 93.9517L10.733 91.6322H4.06911L3.02726 93.9517C2.90932 94.2269 2.73895 94.4366 2.51616 94.5808C2.30648 94.7118 2.07059 94.7774 1.80849 94.7774C1.42845 94.7774 1.08772 94.6529 0.786301 94.4039C0.484886 94.1418 0.334178 93.8272 0.334178 93.4603C0.334178 93.2768 0.386598 93.0672 0.491438 92.8313L5.79897 81.6854C5.94313 81.3709 6.15936 81.135 6.44767 80.9778C6.73598 80.8074 7.04395 80.7222 7.37158 80.7222C7.71231 80.7222 8.02683 80.8074 8.31514 80.9778C8.60345 81.1481 8.82623 81.384 8.98349 81.6854L14.291 92.8313ZM5.11096 89.3126H9.69116L7.41089 84.2016L5.11096 89.3126ZM24.139 80.7419C24.5977 80.7419 24.9646 80.8664 25.2398 81.1154C25.5281 81.3644 25.6723 81.692 25.6723 82.0983V93.421C25.6723 93.8404 25.5347 94.1811 25.2595 94.4432C24.9974 94.6922 24.6435 94.8167 24.198 94.8167C23.7524 94.8167 23.392 94.6922 23.1168 94.4432C22.8547 94.1811 22.7236 93.8404 22.7236 93.421V93.2637C22.4353 93.7617 22.0225 94.1549 21.4852 94.4432C20.961 94.7184 20.3647 94.856 19.6964 94.856C18.8708 94.856 18.1303 94.6463 17.4751 94.2269C16.8329 93.7945 16.3284 93.1982 15.9615 92.4381C15.6076 91.6649 15.4307 90.7803 15.4307 89.7843C15.4307 88.7884 15.6076 87.9169 15.9615 87.1699C16.3284 86.4098 16.8329 85.8266 17.4751 85.4204C18.1172 85.0141 18.8577 84.811 19.6964 84.811C20.3516 84.811 20.9414 84.9486 21.4656 85.2238C22.0029 85.499 22.4157 85.8856 22.704 86.3836V82.0393C22.704 81.6461 22.835 81.3316 23.0971 81.0957C23.3592 80.8598 23.7065 80.7419 24.139 80.7419ZM20.5613 92.5954C21.2559 92.5954 21.7866 92.3595 22.1536 91.8877C22.5336 91.4028 22.7236 90.7148 22.7236 89.8237C22.7236 88.9325 22.5336 88.2511 22.1536 87.7793C21.7866 87.3075 21.2559 87.0716 20.5613 87.0716C19.8668 87.0716 19.3294 87.3075 18.9494 87.7793C18.5694 88.238 18.3793 88.9063 18.3793 89.7843C18.3793 90.6755 18.5694 91.3701 18.9494 91.868C19.3294 92.3529 19.8668 92.5954 20.5613 92.5954ZM32.5973 94.856C31.5751 94.856 30.6774 94.6529 29.9042 94.2466C29.131 93.8272 28.5347 93.2441 28.1153 92.4971C27.696 91.737 27.4863 90.8459 27.4863 89.8237C27.4863 88.8015 27.696 87.9169 28.1153 87.1699C28.5347 86.4098 29.131 85.8266 29.9042 85.4204C30.6774 85.0141 31.5751 84.811 32.5973 84.811C33.6195 84.811 34.5171 85.0141 35.2903 85.4204C36.0635 85.8266 36.6598 86.4098 37.0792 87.1699C37.4985 87.9169 37.7082 88.8015 37.7082 89.8237C37.7082 90.8459 37.4985 91.737 37.0792 92.4971C36.6598 93.2441 36.0635 93.8272 35.2903 94.2466C34.5171 94.6529 33.6195 94.856 32.5973 94.856ZM32.5973 92.5954C34.0388 92.5954 34.7596 91.6715 34.7596 89.8237C34.7596 88.8932 34.5696 88.1986 34.1895 87.74C33.8226 87.2813 33.2918 87.0519 32.5973 87.0519C31.1557 87.0519 30.4349 87.9759 30.4349 89.8237C30.4349 91.6715 31.1557 92.5954 32.5973 92.5954ZM45.4905 84.811C46.3292 84.811 47.0696 85.0141 47.7118 85.4204C48.3539 85.8266 48.8519 86.4098 49.2057 87.1699C49.5727 87.9169 49.7561 88.7884 49.7561 89.7843C49.7561 90.7803 49.5727 91.6649 49.2057 92.4381C48.8519 93.1982 48.3473 93.7945 47.6921 94.2269C47.0499 94.6463 46.3161 94.856 45.4905 94.856C44.8221 94.856 44.2193 94.7184 43.682 94.4432C43.1447 94.1549 42.7318 93.7617 42.4435 93.2637V93.421C42.4435 93.8404 42.3125 94.1811 42.0504 94.4432C41.7883 94.6922 41.4344 94.8167 40.9889 94.8167C40.5433 94.8167 40.1829 94.6922 39.9077 94.4432C39.6456 94.1811 39.5146 93.8404 39.5146 93.421V82.0983C39.5146 81.692 39.6522 81.3644 39.9274 81.1154C40.2157 80.8664 40.5892 80.7419 41.0478 80.7419C41.4803 80.7419 41.8276 80.8598 42.0897 81.0957C42.3518 81.3316 42.4828 81.6461 42.4828 82.0393V86.3443C42.7712 85.8594 43.1774 85.4859 43.7016 85.2238C44.2389 84.9486 44.8352 84.811 45.4905 84.811ZM44.6255 92.5954C45.3201 92.5954 45.8574 92.3529 46.2374 91.868C46.6175 91.3701 46.8075 90.6755 46.8075 89.7843C46.8075 88.9063 46.6175 88.238 46.2374 87.7793C45.8574 87.3075 45.3201 87.0716 44.6255 87.0716C43.931 87.0716 43.3936 87.3141 43.0136 87.7989C42.6336 88.2707 42.4435 88.9456 42.4435 89.8237C42.4435 90.7148 42.6336 91.4028 43.0136 91.8877C43.3936 92.3595 43.931 92.5954 44.6255 92.5954ZM59.3152 91.8287C59.5773 91.8287 59.787 91.9336 59.9443 92.1433C60.1146 92.3529 60.1998 92.6216 60.1998 92.9492C60.1998 93.172 60.1343 93.3817 60.0032 93.5783C59.8722 93.7617 59.6887 93.919 59.4528 94.05C59.0073 94.2859 58.4896 94.4825 57.8999 94.6398C57.3102 94.7839 56.7663 94.856 56.2683 94.856C55.2199 94.856 54.3026 94.6529 53.5163 94.2466C52.7431 93.8404 52.1468 93.2637 51.7274 92.5167C51.3081 91.7567 51.0984 90.8655 51.0984 89.8433C51.0984 88.8604 51.3015 87.989 51.7078 87.2289C52.114 86.4688 52.6775 85.879 53.3983 85.4597C54.1191 85.0272 54.9381 84.811 55.8555 84.811C56.7335 84.811 57.5002 85.0076 58.1554 85.4007C58.8238 85.7808 59.3414 86.3312 59.7084 87.0519C60.0753 87.7596 60.2588 88.5918 60.2588 89.5485C60.2588 89.8368 60.1867 90.0596 60.0426 90.2168C59.9115 90.361 59.7215 90.433 59.4725 90.433H53.9684C54.0601 91.2062 54.296 91.7698 54.676 92.1236C55.0561 92.4643 55.6 92.6347 56.3076 92.6347C56.6877 92.6347 57.0284 92.5888 57.3298 92.4971C57.6312 92.4054 57.9654 92.2809 58.3323 92.1236C58.5158 92.045 58.6927 91.9794 58.8631 91.927C59.0335 91.8615 59.1842 91.8287 59.3152 91.8287ZM55.9341 86.8554C55.3706 86.8554 54.9185 87.0388 54.5778 87.4058C54.237 87.7596 54.0339 88.2773 53.9684 88.9587H57.7623C57.723 88.2642 57.546 87.74 57.2315 87.3861C56.9301 87.0323 56.4976 86.8554 55.9341 86.8554ZM69.3111 94.8167C68.8393 94.8167 68.4658 94.6791 68.1906 94.4039C67.9154 94.1287 67.7778 93.7552 67.7778 93.2834V82.2752C67.7778 81.8165 67.9023 81.4627 68.1513 81.2137C68.4003 80.9647 68.7541 80.8402 69.2128 80.8402H74.1468C75.6539 80.8402 76.8268 81.2202 77.6655 81.9803C78.5043 82.7404 78.9236 83.8019 78.9236 85.1648C78.9236 86.5277 78.5043 87.5893 77.6655 88.3493C76.8268 89.1094 75.6539 89.4895 74.1468 89.4895H70.8444V93.2834C70.8444 93.7552 70.7068 94.1287 70.4316 94.4039C70.1564 94.6791 69.7829 94.8167 69.3111 94.8167ZM73.7537 87.1699C75.287 87.1699 76.0536 86.5081 76.0536 85.1845C76.0536 83.8478 75.287 83.1794 73.7537 83.1794H70.8444V87.1699H73.7537ZM86.786 84.811C89.027 84.811 90.1475 86.1674 90.1475 88.8801V93.421C90.1475 93.8535 90.0099 94.1942 89.7346 94.4432C89.4725 94.6922 89.1122 94.8167 88.6535 94.8167C88.1948 94.8167 87.8344 94.6922 87.5723 94.4432C87.3102 94.1942 87.1792 93.8535 87.1792 93.421V88.8408C87.1792 88.2642 87.0547 87.8383 86.8057 87.563C86.5698 87.2747 86.1963 87.1306 85.6852 87.1306C85.0693 87.1306 84.5713 87.3272 84.1912 87.7203C83.8243 88.1135 83.6408 88.6377 83.6408 89.2929V93.421C83.6408 93.8535 83.5098 94.1942 83.2477 94.4432C82.9856 94.6922 82.6252 94.8167 82.1665 94.8167C81.7078 94.8167 81.3409 94.6922 81.0657 94.4432C80.8036 94.1942 80.6725 93.8535 80.6725 93.421V82.0983C80.6725 81.692 80.8101 81.3644 81.0853 81.1154C81.3736 80.8664 81.7471 80.7419 82.2058 80.7419C82.6383 80.7419 82.9856 80.8598 83.2477 81.0957C83.5098 81.3316 83.6408 81.6461 83.6408 82.0393V86.3246C83.9815 85.8266 84.4206 85.4531 84.9579 85.2041C85.4952 84.942 86.1046 84.811 86.786 84.811ZM97.0026 94.856C95.9804 94.856 95.0827 94.6529 94.3095 94.2466C93.5363 93.8272 92.94 93.2441 92.5206 92.4971C92.1013 91.737 91.8916 90.8459 91.8916 89.8237C91.8916 88.8015 92.1013 87.9169 92.5206 87.1699C92.94 86.4098 93.5363 85.8266 94.3095 85.4204C95.0827 85.0141 95.9804 84.811 97.0026 84.811C98.0248 84.811 98.9224 85.0141 99.6956 85.4204C100.469 85.8266 101.065 86.4098 101.484 87.1699C101.904 87.9169 102.114 88.8015 102.114 89.8237C102.114 90.8459 101.904 91.737 101.484 92.4971C101.065 93.2441 100.469 93.8272 99.6956 94.2466C98.9224 94.6529 98.0248 94.856 97.0026 94.856ZM97.0026 92.5954C98.4441 92.5954 99.1649 91.6715 99.1649 89.8237C99.1649 88.8932 98.9749 88.1986 98.5948 87.74C98.2279 87.2813 97.6971 87.0519 97.0026 87.0519C95.561 87.0519 94.8402 87.9759 94.8402 89.8237C94.8402 91.6715 95.561 92.5954 97.0026 92.5954ZM109.19 92.6543C109.584 92.6806 109.872 92.7788 110.055 92.9492C110.239 93.1196 110.331 93.3686 110.331 93.6962C110.331 94.0762 110.18 94.3646 109.878 94.5611C109.577 94.7577 109.145 94.8363 108.581 94.797L108.031 94.7577C105.737 94.5742 104.591 93.3751 104.591 91.1604V87.2682H103.804C103.372 87.2682 103.044 87.1764 102.821 86.993C102.599 86.7964 102.487 86.5212 102.487 86.1674C102.487 85.8004 102.599 85.5252 102.821 85.3417C103.044 85.1452 103.372 85.0469 103.804 85.0469H104.591V83.5136C104.591 83.0811 104.722 82.7404 104.984 82.4914C105.259 82.2424 105.626 82.1179 106.084 82.1179C106.543 82.1179 106.904 82.2424 107.166 82.4914C107.428 82.7404 107.559 83.0811 107.559 83.5136V85.0469H108.935C109.826 85.0469 110.272 85.4204 110.272 86.1674C110.272 86.5212 110.16 86.7964 109.937 86.993C109.715 87.1764 109.38 87.2682 108.935 87.2682H107.559V91.3766C107.559 91.7698 107.651 92.0712 107.834 92.2809C108.017 92.4774 108.286 92.5888 108.64 92.615L109.19 92.6543ZM116.065 94.856C115.043 94.856 114.145 94.6529 113.372 94.2466C112.599 93.8272 112.002 93.2441 111.583 92.4971C111.164 91.737 110.954 90.8459 110.954 89.8237C110.954 88.8015 111.164 87.9169 111.583 87.1699C112.002 86.4098 112.599 85.8266 113.372 85.4204C114.145 85.0141 115.043 84.811 116.065 84.811C117.087 84.811 117.985 85.0141 118.758 85.4204C119.531 85.8266 120.128 86.4098 120.547 87.1699C120.966 87.9169 121.176 88.8015 121.176 89.8237C121.176 90.8459 120.966 91.737 120.547 92.4971C120.128 93.2441 119.531 93.8272 118.758 94.2466C117.985 94.6529 117.087 94.856 116.065 94.856ZM116.065 92.5954C117.507 92.5954 118.227 91.6715 118.227 89.8237C118.227 88.8932 118.037 88.1986 117.657 87.74C117.29 87.2813 116.76 87.0519 116.065 87.0519C114.623 87.0519 113.903 87.9759 113.903 89.8237C113.903 91.6715 114.623 92.5954 116.065 92.5954ZM126.639 94.856C125.839 94.856 125.145 94.7905 124.555 94.6594C123.965 94.5284 123.448 94.3187 123.002 94.0304C122.805 93.9124 122.655 93.7552 122.55 93.5586C122.445 93.362 122.393 93.1392 122.393 92.8902C122.393 92.5888 122.478 92.3398 122.648 92.1433C122.818 91.9336 123.028 91.8287 123.277 91.8287C123.448 91.8287 123.618 91.8615 123.788 91.927C123.959 91.9794 124.136 92.045 124.319 92.1236C124.686 92.294 125.046 92.4316 125.4 92.5364C125.754 92.6281 126.193 92.674 126.717 92.674C127.176 92.674 127.53 92.6019 127.779 92.4578C128.041 92.3136 128.172 92.117 128.172 91.868C128.172 91.6846 128.113 91.5404 127.995 91.4356C127.89 91.3176 127.687 91.2128 127.386 91.1211C127.084 91.0293 126.606 90.9179 125.951 90.7869C124.784 90.5641 123.946 90.2299 123.434 89.7843C122.923 89.3388 122.668 88.7163 122.668 87.9169C122.668 87.3272 122.845 86.7964 123.199 86.3246C123.565 85.8528 124.063 85.4859 124.692 85.2238C125.322 84.9486 126.029 84.811 126.816 84.811C127.379 84.811 127.929 84.8831 128.467 85.0272C129.004 85.1714 129.482 85.3745 129.902 85.6366C130.308 85.8856 130.511 86.2525 130.511 86.7374C130.511 87.0519 130.426 87.3141 130.256 87.5237C130.085 87.7334 129.876 87.8383 129.627 87.8383C129.325 87.8383 128.965 87.7203 128.545 87.4844C128.218 87.314 127.916 87.1896 127.641 87.1109C127.379 87.0192 127.065 86.9733 126.698 86.9733C126.291 86.9733 125.97 87.0519 125.734 87.2092C125.498 87.3534 125.381 87.5565 125.381 87.8186C125.381 88.0938 125.518 88.3035 125.793 88.4476C126.069 88.5918 126.599 88.7359 127.386 88.8801C128.264 89.0505 128.952 89.2601 129.45 89.5091C129.948 89.745 130.308 90.0464 130.531 90.4134C130.754 90.7803 130.865 91.2456 130.865 91.8091C130.865 92.7395 130.478 93.48 129.705 94.0304C128.945 94.5808 127.923 94.856 126.639 94.856ZM138.675 84.811C140.916 84.811 142.036 86.1674 142.036 88.8801V93.421C142.036 93.8535 141.899 94.1942 141.624 94.4432C141.362 94.6922 141.001 94.8167 140.542 94.8167C140.084 94.8167 139.723 94.6922 139.461 94.4432C139.199 94.1942 139.068 93.8535 139.068 93.421V88.8408C139.068 88.2642 138.944 87.8383 138.695 87.563C138.459 87.2747 138.085 87.1306 137.574 87.1306C136.958 87.1306 136.46 87.3272 136.08 87.7203C135.713 88.1135 135.53 88.6377 135.53 89.2929V93.421C135.53 93.8535 135.399 94.1942 135.137 94.4432C134.875 94.6922 134.514 94.8167 134.055 94.8167C133.597 94.8167 133.23 94.6922 132.955 94.4432C132.693 94.1942 132.561 93.8535 132.561 93.421V82.0983C132.561 81.692 132.699 81.3644 132.974 81.1154C133.263 80.8664 133.636 80.7419 134.095 80.7419C134.527 80.7419 134.875 80.8598 135.137 81.0957C135.399 81.3316 135.53 81.6461 135.53 82.0393V86.3246C135.871 85.8266 136.31 85.4531 136.847 85.2041C137.384 84.942 137.994 84.811 138.675 84.811ZM148.892 94.856C147.869 94.856 146.972 94.6529 146.198 94.2466C145.425 93.8272 144.829 93.2441 144.41 92.4971C143.99 91.737 143.781 90.8459 143.781 89.8237C143.781 88.8015 143.99 87.9169 144.41 87.1699C144.829 86.4098 145.425 85.8266 146.198 85.4204C146.972 85.0141 147.869 84.811 148.892 84.811C149.914 84.811 150.811 85.0141 151.585 85.4204C152.358 85.8266 152.954 86.4098 153.373 87.1699C153.793 87.9169 154.002 88.8015 154.002 89.8237C154.002 90.8459 153.793 91.737 153.373 92.4971C152.954 93.2441 152.358 93.8272 151.585 94.2466C150.811 94.6529 149.914 94.856 148.892 94.856ZM148.892 92.5954C150.333 92.5954 151.054 91.6715 151.054 89.8237C151.054 88.8932 150.864 88.1986 150.484 87.74C150.117 87.2813 149.586 87.0519 148.892 87.0519C147.45 87.0519 146.729 87.9759 146.729 89.8237C146.729 91.6715 147.45 92.5954 148.892 92.5954ZM161.785 84.811C162.61 84.811 163.344 85.0272 163.986 85.4597C164.642 85.879 165.146 86.4753 165.5 87.2485C165.867 88.0086 166.05 88.8867 166.05 89.8826C166.05 90.8786 165.867 91.7567 165.5 92.5167C165.146 93.2637 164.648 93.8404 164.006 94.2466C163.364 94.6529 162.623 94.856 161.785 94.856C161.129 94.856 160.533 94.7249 159.996 94.4628C159.472 94.1876 159.065 93.8076 158.777 93.3227V97.038C158.777 97.4311 158.646 97.7456 158.384 97.9815C158.122 98.2174 157.775 98.3354 157.342 98.3354C156.883 98.3354 156.51 98.2109 156.222 97.9619C155.946 97.7129 155.809 97.3853 155.809 96.979V86.246C155.809 85.8266 155.94 85.4925 156.202 85.2435C156.477 84.9814 156.838 84.8503 157.283 84.8503C157.729 84.8503 158.083 84.9814 158.345 85.2435C158.607 85.4925 158.738 85.8266 158.738 86.246V86.4033C159.026 85.9053 159.439 85.5187 159.976 85.2435C160.514 84.9551 161.116 84.811 161.785 84.811ZM160.92 92.5954C161.614 92.5954 162.152 92.366 162.532 91.9074C162.912 91.4356 163.102 90.7607 163.102 89.8826C163.102 88.9915 162.912 88.3035 162.532 87.8186C162.152 87.3206 161.614 87.0716 160.92 87.0716C160.225 87.0716 159.688 87.3141 159.308 87.7989C158.928 88.2707 158.738 88.9522 158.738 89.8433C158.738 90.7214 158.928 91.4028 159.308 91.8877C159.688 92.3595 160.225 92.5954 160.92 92.5954Z" fill="#7400B8"/>
<path d="M340.94 87.563C341.74 87.7989 342.356 88.2117 342.788 88.8015C343.221 89.3781 343.437 90.0858 343.437 90.9245C343.437 92.1564 342.965 93.1196 342.022 93.8141C341.078 94.5087 339.774 94.856 338.11 94.856C336.445 94.856 335.141 94.5087 334.198 93.8141C333.254 93.1196 332.782 92.1564 332.782 90.9245C332.782 90.0596 332.999 89.3388 333.431 88.7622C333.864 88.1855 334.486 87.7858 335.299 87.563C334.617 87.3009 334.086 86.8947 333.706 86.3443C333.326 85.7939 333.136 85.1517 333.136 84.4178C333.136 83.2646 333.582 82.3538 334.473 81.6854C335.364 81.004 336.576 80.6633 338.11 80.6633C339.656 80.6633 340.868 80.9974 341.746 81.6658C342.637 82.3341 343.083 83.2515 343.083 84.4178C343.083 85.1648 342.893 85.8201 342.513 86.3836C342.133 86.9471 341.609 87.3403 340.94 87.563ZM338.11 83.0025C336.707 83.0025 336.006 83.5857 336.006 84.752C336.006 85.9315 336.707 86.5212 338.11 86.5212C339.512 86.5212 340.213 85.9315 340.213 84.752C340.213 83.5857 339.512 83.0025 338.11 83.0025ZM338.11 92.5167C339.761 92.5167 340.587 91.9074 340.587 90.6886C340.587 89.4698 339.761 88.8604 338.11 88.8604C336.458 88.8604 335.633 89.4698 335.633 90.6886C335.633 91.9074 336.458 92.5167 338.11 92.5167ZM350.899 85.6956C351.712 85.6956 352.432 85.8856 353.061 86.2656C353.704 86.6457 354.202 87.1764 354.555 87.8579C354.922 88.5394 355.106 89.3126 355.106 90.1775C355.106 91.0817 354.903 91.8943 354.496 92.615C354.09 93.3227 353.527 93.8797 352.806 94.2859C352.085 94.6791 351.273 94.8756 350.368 94.8756C348.573 94.8756 347.184 94.2794 346.201 93.0868C345.218 91.8943 344.727 90.1906 344.727 87.9759C344.727 86.495 344.956 85.2041 345.415 84.1033C345.873 82.9894 346.529 82.1376 347.38 81.5478C348.245 80.9581 349.248 80.6633 350.388 80.6633C351.135 80.6633 351.888 80.7877 352.649 81.0367C353.409 81.2857 354.057 81.633 354.595 82.0786C354.778 82.2227 354.909 82.38 354.988 82.5504C355.08 82.7076 355.125 82.9042 355.125 83.1401C355.125 83.4808 355.027 83.7757 354.831 84.0247C354.647 84.2606 354.418 84.3785 354.143 84.3785C353.972 84.3785 353.821 84.3589 353.69 84.3196C353.572 84.2671 353.409 84.1819 353.199 84.064C352.675 83.7495 352.203 83.507 351.784 83.3367C351.377 83.1532 350.958 83.0615 350.526 83.0615C349.713 83.0615 349.064 83.435 348.579 84.1819C348.108 84.9289 347.839 85.9773 347.773 87.3272C348.075 86.8292 348.501 86.436 349.051 86.1477C349.602 85.8463 350.218 85.6956 350.899 85.6956ZM350.191 92.4971C350.807 92.4971 351.299 92.294 351.666 91.8877C352.046 91.4814 352.236 90.9441 352.236 90.2758C352.236 89.6205 352.046 89.0898 351.666 88.6835C351.299 88.2773 350.807 88.0741 350.191 88.0741C349.575 88.0741 349.077 88.2773 348.697 88.6835C348.317 89.0898 348.127 89.6205 348.127 90.2758C348.127 90.931 348.317 91.4683 348.697 91.8877C349.077 92.294 349.575 92.4971 350.191 92.4971ZM362.647 94.3252C362.345 94.8232 361.972 95.0722 361.526 95.0722C361.251 95.0722 361.008 94.9674 360.799 94.7577C360.602 94.5611 360.504 94.3121 360.504 94.0107C360.504 93.7617 360.583 93.4996 360.74 93.2244L367.699 81.2137C367.974 80.7157 368.341 80.4667 368.799 80.4667C369.088 80.4667 369.33 80.5715 369.527 80.7812C369.736 80.9778 369.841 81.2268 369.841 81.5282C369.841 81.7772 369.763 82.0393 369.605 82.3145L362.647 94.3252ZM360.091 89.0963C358.964 89.0963 358.079 88.7359 357.437 88.0152C356.808 87.2813 356.494 86.2198 356.494 84.8306C356.494 83.4808 356.815 82.4455 357.457 81.7248C358.099 80.9909 358.977 80.6239 360.091 80.6239C361.218 80.6239 362.096 80.9909 362.725 81.7248C363.367 82.4455 363.688 83.4874 363.688 84.8503C363.688 86.2394 363.367 87.2944 362.725 88.0152C362.096 88.7359 361.218 89.0963 360.091 89.0963ZM360.091 87.2485C360.497 87.2485 360.792 87.0651 360.976 86.6981C361.159 86.3312 361.251 85.7152 361.251 84.8503C361.251 84.0247 361.153 83.4284 360.956 83.0615C360.773 82.6814 360.484 82.4914 360.091 82.4914C359.698 82.4914 359.41 82.6749 359.226 83.0418C359.043 83.4088 358.951 84.0116 358.951 84.8503C358.951 85.7021 359.043 86.3181 359.226 86.6981C359.41 87.0651 359.698 87.2485 360.091 87.2485ZM370.234 94.8363C369.107 94.8363 368.223 94.4759 367.581 93.7552C366.952 93.0213 366.637 91.9598 366.637 90.5706C366.637 89.2077 366.952 88.1659 367.581 87.4451C368.223 86.7243 369.107 86.3639 370.234 86.3639C371.348 86.3639 372.226 86.7309 372.868 87.4648C373.511 88.1855 373.832 89.2274 373.832 90.5903C373.832 91.9663 373.511 93.0213 372.868 93.7552C372.239 94.4759 371.361 94.8363 370.234 94.8363ZM370.234 92.9885C370.641 92.9885 370.935 92.8051 371.119 92.4381C371.302 92.0712 371.394 91.4552 371.394 90.5903C371.394 89.7516 371.296 89.1488 371.099 88.7818C370.916 88.4018 370.628 88.2117 370.234 88.2117C369.841 88.2117 369.546 88.4018 369.35 88.7818C369.166 89.1488 369.075 89.7516 369.075 90.5903C369.075 91.4552 369.166 92.0712 369.35 92.4381C369.533 92.8051 369.828 92.9885 370.234 92.9885Z" fill="#7400B8"/>
<rect y="98.2876" width="430.5" height="9.82877" rx="4.91438" fill="url(#paint1_linear)"/>
<path d="M322.384 98.2876H425.586C428.3 98.2876 430.5 100.488 430.5 103.202C430.5 105.916 428.3 108.116 425.586 108.116H322.384V98.2876Z" fill="black"/>
<line x1="321.401" y1="102.219" x2="321.401" y2="70.7672" stroke="#7108B9" stroke-width="1.96575"/>
<circle cx="321.401" cy="69.7844" r="7.86301" fill="#7108B9" stroke="black" stroke-width="1.96575"/>
<path d="M7.74507 153.848C6.38215 153.848 5.18959 153.56 4.1674 152.983C3.14521 152.407 2.3589 151.581 1.80849 150.506C1.25808 149.432 0.982877 148.174 0.982877 146.732C0.982877 145.29 1.25808 144.039 1.80849 142.977C2.3589 141.903 3.14521 141.077 4.1674 140.501C5.18959 139.924 6.38215 139.636 7.74507 139.636C9.46183 139.636 10.9427 140.107 12.1877 141.051C12.3842 141.208 12.5218 141.366 12.6005 141.523C12.6791 141.68 12.7184 141.877 12.7184 142.113C12.7184 142.453 12.6201 142.748 12.4236 142.997C12.2401 143.233 12.0108 143.351 11.7355 143.351C11.5521 143.351 11.3883 143.331 11.2441 143.292C11.1131 143.24 10.9624 143.154 10.792 143.036C10.2678 142.696 9.7829 142.453 9.33733 142.309C8.89176 142.152 8.41342 142.073 7.90233 142.073C6.64425 142.073 5.69413 142.466 5.05199 143.253C4.42295 144.026 4.10842 145.186 4.10842 146.732C4.10842 149.851 5.37306 151.411 7.90233 151.411C8.38721 151.411 8.84589 151.338 9.27836 151.194C9.71082 151.037 10.2154 150.788 10.792 150.447C10.9886 150.329 11.1524 150.251 11.2834 150.211C11.4145 150.159 11.5652 150.133 11.7355 150.133C12.0108 150.133 12.2401 150.257 12.4236 150.506C12.6201 150.742 12.7184 151.03 12.7184 151.371C12.7184 151.607 12.6726 151.81 12.5808 151.981C12.5022 152.138 12.3711 152.289 12.1877 152.433C10.9427 153.376 9.46183 153.848 7.74507 153.848ZM18.9099 153.828C17.8877 153.828 16.99 153.625 16.2169 153.219C15.4437 152.8 14.8474 152.216 14.428 151.469C14.0087 150.709 13.799 149.818 13.799 148.796C13.799 147.774 14.0087 146.889 14.428 146.142C14.8474 145.382 15.4437 144.799 16.2169 144.393C16.99 143.987 17.8877 143.783 18.9099 143.783C19.9321 143.783 20.8298 143.987 21.603 144.393C22.3762 144.799 22.9725 145.382 23.3919 146.142C23.8112 146.889 24.0209 147.774 24.0209 148.796C24.0209 149.818 23.8112 150.709 23.3919 151.469C22.9725 152.216 22.3762 152.8 21.603 153.219C20.8298 153.625 19.9321 153.828 18.9099 153.828ZM18.9099 151.568C20.3515 151.568 21.0723 150.644 21.0723 148.796C21.0723 147.866 20.8822 147.171 20.5022 146.712C20.1353 146.254 19.6045 146.024 18.9099 146.024C17.4684 146.024 16.7476 146.948 16.7476 148.796C16.7476 150.644 17.4684 151.568 18.9099 151.568ZM31.5869 143.823C31.98 143.797 32.288 143.888 32.5108 144.098C32.7467 144.294 32.8646 144.596 32.8646 145.002C32.8646 145.435 32.7598 145.756 32.5501 145.965C32.3404 146.175 31.9669 146.306 31.4296 146.359L30.8399 146.418C30.1191 146.496 29.5949 146.732 29.2673 147.125C28.9528 147.518 28.7955 148.023 28.7955 148.639V152.393C28.7955 152.852 28.6514 153.199 28.3631 153.435C28.0879 153.671 27.7406 153.789 27.3212 153.789C26.8887 153.789 26.5284 153.671 26.24 153.435C25.9648 153.199 25.8272 152.852 25.8272 152.393V145.179C25.8272 144.747 25.9714 144.412 26.2597 144.177C26.548 143.941 26.8953 143.823 27.3015 143.823C27.6947 143.823 28.0223 143.941 28.2844 144.177C28.5465 144.399 28.6776 144.714 28.6776 145.12V145.651C28.9135 145.087 29.2673 144.655 29.7391 144.353C30.224 144.052 30.7482 143.882 31.3117 143.842L31.5869 143.823ZM41.2702 150.801C41.5323 150.801 41.742 150.906 41.8993 151.116C42.0696 151.325 42.1548 151.594 42.1548 151.922C42.1548 152.144 42.0893 152.354 41.9582 152.551C41.8272 152.734 41.6437 152.891 41.4078 153.022C40.9623 153.258 40.4446 153.455 39.8549 153.612C39.2652 153.756 38.7213 153.828 38.2233 153.828C37.1749 153.828 36.2576 153.625 35.4713 153.219C34.6981 152.813 34.1018 152.236 33.6824 151.489C33.2631 150.729 33.0534 149.838 33.0534 148.816C33.0534 147.833 33.2565 146.961 33.6628 146.201C34.069 145.441 34.6325 144.851 35.3533 144.432C36.0741 144 36.8931 143.783 37.8105 143.783C38.6885 143.783 39.4552 143.98 40.1104 144.373C40.7788 144.753 41.2964 145.304 41.6634 146.024C42.0303 146.732 42.2138 147.564 42.2138 148.521C42.2138 148.809 42.1417 149.032 41.9976 149.189C41.8665 149.333 41.6765 149.405 41.4275 149.405H35.9234C36.0151 150.179 36.251 150.742 36.631 151.096C37.0111 151.437 37.5549 151.607 38.2626 151.607C38.6427 151.607 38.9834 151.561 39.2848 151.469C39.5862 151.378 39.9204 151.253 40.2873 151.096C40.4708 151.017 40.6477 150.952 40.8181 150.899C40.9885 150.834 41.1392 150.801 41.2702 150.801ZM37.8891 145.828C37.3256 145.828 36.8735 146.011 36.5328 146.378C36.192 146.732 35.9889 147.25 35.9234 147.931H39.7173C39.678 147.237 39.501 146.712 39.1865 146.359C38.8851 146.005 38.4526 145.828 37.8891 145.828ZM45.5006 153.789C45.0681 153.789 44.7077 153.671 44.4194 153.435C44.1442 153.199 44.0066 152.852 44.0066 152.393V141.11C44.0066 140.651 44.1442 140.304 44.4194 140.068C44.7077 139.832 45.0681 139.714 45.5006 139.714C45.9199 139.714 46.2672 139.832 46.5424 140.068C46.8307 140.304 46.9749 140.651 46.9749 141.11V152.393C46.9749 152.852 46.8307 153.199 46.5424 153.435C46.2672 153.671 45.9199 153.789 45.5006 153.789ZM50.5054 149.563C49.575 149.563 49.1097 149.176 49.1097 148.403C49.1097 147.63 49.575 147.243 50.5054 147.243H54.3583C55.2888 147.243 55.754 147.63 55.754 148.403C55.754 149.176 55.2888 149.563 54.3583 149.563H50.5054ZM59.576 153.671C59.1173 153.671 58.7635 153.547 58.5145 153.298C58.2655 153.049 58.141 152.695 58.141 152.236V141.248C58.141 140.789 58.2655 140.435 58.5145 140.186C58.7635 139.937 59.1173 139.813 59.576 139.813H63.5272C65.0342 139.813 66.3316 140.088 67.4194 140.638C68.5071 141.189 69.3392 141.981 69.9159 143.017C70.4925 144.052 70.7808 145.29 70.7808 146.732C70.7808 148.174 70.4925 149.419 69.9159 150.467C69.3523 151.502 68.5267 152.295 67.439 152.846C66.3513 153.396 65.0473 153.671 63.5272 153.671H59.576ZM63.3109 151.194C66.2596 151.194 67.7339 149.707 67.7339 146.732C67.7339 143.77 66.2596 142.289 63.3109 142.289H61.2076V151.194H63.3109ZM78.6575 143.823C79.0506 143.797 79.3586 143.888 79.5814 144.098C79.8173 144.294 79.9352 144.596 79.9352 145.002C79.9352 145.435 79.8304 145.756 79.6207 145.965C79.411 146.175 79.0375 146.306 78.5002 146.359L77.9105 146.418C77.1897 146.496 76.6655 146.732 76.3379 147.125C76.0234 147.518 75.8661 148.023 75.8661 148.639V152.393C75.8661 152.852 75.7219 153.199 75.4336 153.435C75.1584 153.671 74.8111 153.789 74.3918 153.789C73.9593 153.789 73.5989 153.671 73.3106 153.435C73.0354 153.199 72.8978 152.852 72.8978 152.393V145.179C72.8978 144.747 73.042 144.412 73.3303 144.177C73.6186 143.941 73.9659 143.823 74.3721 143.823C74.7653 143.823 75.0929 143.941 75.355 144.177C75.6171 144.399 75.7482 144.714 75.7482 145.12V145.651C75.984 145.087 76.3379 144.655 76.8097 144.353C77.2945 144.052 77.8187 143.882 78.3823 143.842L78.6575 143.823ZM85.132 143.783C86.5474 143.783 87.5958 144.131 88.2772 144.825C88.9587 145.507 89.2994 146.555 89.2994 147.97V152.413C89.2994 152.846 89.1749 153.186 88.9259 153.435C88.6769 153.671 88.3296 153.789 87.8841 153.789C87.4647 153.789 87.124 153.665 86.8619 153.416C86.6129 153.153 86.4884 152.819 86.4884 152.413V152.275C86.2918 152.76 85.9642 153.14 85.5055 153.416C85.0468 153.691 84.5095 153.828 83.8936 153.828C83.2383 153.828 82.6421 153.697 82.1048 153.435C81.5806 153.173 81.1612 152.806 80.8467 152.334C80.5453 151.863 80.3946 151.338 80.3946 150.762C80.3946 150.054 80.5715 149.497 80.9253 149.091C81.2922 148.685 81.8754 148.39 82.6748 148.206C83.4742 148.023 84.5685 147.931 85.9576 147.931H86.4687V147.577C86.4687 147.027 86.3442 146.627 86.0952 146.378C85.8593 146.129 85.4596 146.005 84.8961 146.005C84.3326 146.005 83.5201 146.201 82.4586 146.594C82.1572 146.739 81.9016 146.811 81.692 146.811C81.4036 146.811 81.1743 146.712 81.0039 146.516C80.8336 146.306 80.7484 146.037 80.7484 145.71C80.7484 145.448 80.8074 145.232 80.9253 145.061C81.0433 144.891 81.2333 144.734 81.4954 144.589C81.9541 144.34 82.511 144.144 83.1663 144C83.8346 143.855 84.4899 143.783 85.132 143.783ZM84.5423 151.784C85.1189 151.784 85.5841 151.594 85.938 151.214C86.2918 150.821 86.4687 150.316 86.4687 149.7V149.366H86.1346C85.073 149.366 84.3261 149.451 83.8936 149.622C83.4742 149.792 83.2646 150.1 83.2646 150.546C83.2646 150.913 83.3825 151.214 83.6184 151.45C83.8674 151.673 84.1754 151.784 84.5423 151.784ZM104.493 144.688C104.611 144.412 104.774 144.203 104.984 144.059C105.194 143.914 105.417 143.842 105.652 143.842C106.019 143.842 106.347 143.967 106.635 144.216C106.924 144.465 107.068 144.773 107.068 145.14C107.068 145.297 107.029 145.474 106.95 145.671L103.726 152.904C103.608 153.193 103.418 153.416 103.156 153.573C102.894 153.717 102.619 153.789 102.33 153.789C102.029 153.789 101.747 153.717 101.485 153.573C101.236 153.416 101.053 153.193 100.935 152.904L98.8313 148.01L96.8066 152.904C96.6887 153.193 96.5052 153.416 96.2562 153.573C96.0072 153.717 95.7254 153.789 95.4109 153.789C95.1095 153.789 94.8277 153.717 94.5656 153.573C94.3035 153.416 94.1135 153.193 93.9956 152.904L90.7914 145.671C90.7128 145.487 90.6734 145.31 90.6734 145.14C90.6734 144.773 90.8242 144.465 91.1256 144.216C91.4401 143.967 91.7939 143.842 92.1871 143.842C92.4492 143.842 92.6851 143.914 92.8948 144.059C93.1175 144.203 93.2879 144.412 93.4058 144.688L95.5092 149.976L97.6519 144.727C97.7698 144.452 97.9402 144.242 98.163 144.098C98.3989 143.941 98.6544 143.862 98.9296 143.862C99.2048 143.862 99.4604 143.934 99.6963 144.078C99.9321 144.222 100.109 144.439 100.227 144.727L102.409 149.976L104.493 144.688Z" fill="#7400B8"/>
<path d="M380.884 139.636C382.68 139.636 384.069 140.232 385.052 141.424C386.035 142.617 386.526 144.321 386.526 146.535C386.526 148.016 386.297 149.314 385.838 150.428C385.379 151.528 384.718 152.374 383.853 152.963C383.001 153.553 382.005 153.848 380.865 153.848C380.118 153.848 379.364 153.724 378.604 153.475C377.844 153.226 377.195 152.878 376.658 152.433C376.475 152.289 376.337 152.138 376.245 151.981C376.167 151.81 376.127 151.607 376.127 151.371C376.127 151.03 376.219 150.742 376.403 150.506C376.599 150.257 376.835 150.133 377.11 150.133C377.281 150.133 377.425 150.159 377.543 150.211C377.674 150.251 377.844 150.329 378.054 150.447C378.578 150.762 379.043 151.011 379.449 151.194C379.869 151.365 380.295 151.45 380.727 151.45C381.54 151.45 382.182 151.076 382.654 150.329C383.139 149.582 383.414 148.534 383.479 147.184C383.178 147.682 382.752 148.082 382.202 148.383C381.651 148.672 381.035 148.816 380.354 148.816C379.541 148.816 378.814 148.626 378.172 148.246C377.543 147.866 377.045 147.335 376.678 146.653C376.324 145.972 376.147 145.199 376.147 144.334C376.147 143.43 376.35 142.624 376.756 141.916C377.163 141.195 377.726 140.638 378.447 140.245C379.168 139.839 379.98 139.636 380.884 139.636ZM381.061 146.437C381.677 146.437 382.175 146.234 382.555 145.828C382.935 145.422 383.125 144.891 383.125 144.236C383.125 143.58 382.935 143.05 382.555 142.643C382.175 142.224 381.677 142.014 381.061 142.014C380.445 142.014 379.947 142.217 379.567 142.624C379.2 143.03 379.017 143.567 379.017 144.236C379.017 144.891 379.2 145.422 379.567 145.828C379.947 146.234 380.445 146.437 381.061 146.437ZM393.143 153.848C391.466 153.848 390.181 153.239 389.29 152.02C388.412 150.801 387.973 149.039 387.973 146.732C387.973 144.439 388.412 142.683 389.29 141.464C390.181 140.245 391.466 139.636 393.143 139.636C394.821 139.636 396.098 140.245 396.976 141.464C397.867 142.683 398.313 144.439 398.313 146.732C398.313 149.039 397.867 150.801 396.976 152.02C396.098 153.239 394.821 153.848 393.143 153.848ZM393.143 151.509C393.903 151.509 394.454 151.129 394.794 150.369C395.148 149.609 395.325 148.396 395.325 146.732C395.325 145.055 395.148 143.842 394.794 143.095C394.454 142.348 393.903 141.975 393.143 141.975C392.383 141.975 391.826 142.355 391.472 143.115C391.131 143.862 390.961 145.068 390.961 146.732C390.961 148.396 391.131 149.609 391.472 150.369C391.826 151.129 392.383 151.509 393.143 151.509ZM405.893 153.298C405.592 153.796 405.218 154.045 404.773 154.045C404.497 154.045 404.255 153.94 404.045 153.73C403.849 153.534 403.75 153.285 403.75 152.983C403.75 152.734 403.829 152.472 403.986 152.197L410.945 140.186C411.22 139.688 411.587 139.439 412.046 139.439C412.334 139.439 412.577 139.544 412.773 139.754C412.983 139.95 413.088 140.199 413.088 140.501C413.088 140.75 413.009 141.012 412.852 141.287L405.893 153.298ZM403.338 148.069C402.211 148.069 401.326 147.708 400.684 146.988C400.055 146.254 399.74 145.192 399.74 143.803C399.74 142.453 400.061 141.418 400.704 140.697C401.346 139.963 402.224 139.596 403.338 139.596C404.465 139.596 405.343 139.963 405.972 140.697C406.614 141.418 406.935 142.46 406.935 143.823C406.935 145.212 406.614 146.267 405.972 146.988C405.343 147.708 404.465 148.069 403.338 148.069ZM403.338 146.221C403.744 146.221 404.039 146.037 404.222 145.671C404.406 145.304 404.497 144.688 404.497 143.823C404.497 142.997 404.399 142.401 404.203 142.034C404.019 141.654 403.731 141.464 403.338 141.464C402.945 141.464 402.656 141.647 402.473 142.014C402.289 142.381 402.198 142.984 402.198 143.823C402.198 144.675 402.289 145.29 402.473 145.671C402.656 146.037 402.945 146.221 403.338 146.221ZM413.481 153.809C412.354 153.809 411.469 153.448 410.827 152.728C410.198 151.994 409.884 150.932 409.884 149.543C409.884 148.18 410.198 147.138 410.827 146.418C411.469 145.697 412.354 145.336 413.481 145.336C414.595 145.336 415.473 145.703 416.115 146.437C416.757 147.158 417.078 148.2 417.078 149.563C417.078 150.939 416.757 151.994 416.115 152.728C415.486 153.448 414.608 153.809 413.481 153.809ZM413.481 151.961C413.887 151.961 414.182 151.777 414.366 151.411C414.549 151.044 414.641 150.428 414.641 149.563C414.641 148.724 414.542 148.121 414.346 147.754C414.162 147.374 413.874 147.184 413.481 147.184C413.088 147.184 412.793 147.374 412.596 147.754C412.413 148.121 412.321 148.724 412.321 149.563C412.321 150.428 412.413 151.044 412.596 151.411C412.78 151.777 413.075 151.961 413.481 151.961Z" fill="#7400B8"/>
<rect y="157.26" width="430.5" height="9.82877" rx="4.91438" fill="url(#paint2_linear)"/>
<path d="M361.699 157.26H425.586C428.3 157.26 430.5 159.46 430.5 162.175C430.5 164.889 428.3 167.089 425.586 167.089H361.699V157.26Z" fill="black"/>
<line x1="360.716" y1="159.226" x2="360.716" y2="127.774" stroke="#7108B9" stroke-width="1.96575"/>
<circle cx="360.716" cy="126.791" r="7.86301" fill="#7108B9" stroke="black" stroke-width="1.96575"/>
<path d="M2.90932 212.762C2.45064 212.762 2.07715 212.624 1.78884 212.349C1.51363 212.061 1.37603 211.687 1.37603 211.228V200.22C1.37603 199.762 1.50053 199.408 1.74952 199.159C1.99852 198.91 2.35235 198.785 2.81103 198.785H9.57322C10.0712 198.785 10.4382 198.884 10.674 199.08C10.9099 199.277 11.0279 199.585 11.0279 200.004C11.0279 200.41 10.9099 200.712 10.674 200.908C10.4382 201.105 10.0712 201.203 9.57322 201.203H4.40329V204.388H9.18007C9.67806 204.388 10.045 204.486 10.2809 204.682C10.5168 204.879 10.6347 205.187 10.6347 205.606C10.6347 206.013 10.5168 206.314 10.2809 206.511C10.045 206.707 9.67806 206.806 9.18007 206.806H4.40329V211.228C4.40329 211.7 4.26568 212.074 3.99048 212.349C3.72838 212.624 3.36799 212.762 2.90932 212.762ZM14.6705 212.762C14.238 212.762 13.8777 212.644 13.5893 212.408C13.3141 212.172 13.1765 211.825 13.1765 211.366V204.191C13.1765 203.732 13.3207 203.385 13.609 203.149C13.8973 202.913 14.2511 202.795 14.6705 202.795C15.0899 202.795 15.4372 202.913 15.7124 203.149C16.0007 203.385 16.1448 203.732 16.1448 204.191V211.366C16.1448 211.825 16.0007 212.172 15.7124 212.408C15.4372 212.644 15.0899 212.762 14.6705 212.762ZM14.6705 201.223C14.1463 201.223 13.7335 201.092 13.4321 200.83C13.1307 200.554 12.98 200.187 12.98 199.729C12.98 199.27 13.1307 198.91 13.4321 198.648C13.7335 198.386 14.1463 198.254 14.6705 198.254C15.1816 198.254 15.5879 198.392 15.8893 198.667C16.2038 198.929 16.3611 199.283 16.3611 199.729C16.3611 200.187 16.2103 200.554 15.9089 200.83C15.6075 201.092 15.1947 201.223 14.6705 201.223ZM26.7914 202.795C27.2369 202.795 27.5908 202.926 27.8529 203.189C28.1281 203.438 28.2657 203.772 28.2657 204.191V211.602C28.2657 213.161 27.8136 214.341 26.9093 215.14C26.0051 215.94 24.6815 216.339 22.9385 216.339C21.4707 216.339 20.2651 216.077 19.3215 215.553C19.0856 215.422 18.9022 215.258 18.7711 215.062C18.6401 214.878 18.5745 214.669 18.5745 214.433C18.5745 214.105 18.6532 213.836 18.8104 213.627C18.9677 213.417 19.1774 213.312 19.4395 213.312C19.5836 213.312 19.754 213.338 19.9506 213.391C20.1471 213.456 20.3503 213.528 20.5599 213.607C20.9793 213.764 21.3659 213.889 21.7197 213.981C22.0736 214.072 22.4536 214.118 22.8599 214.118C23.6986 214.118 24.3211 213.928 24.7273 213.548C25.1336 213.168 25.3367 212.591 25.3367 211.818V210.757C25.0615 211.255 24.6487 211.648 24.0983 211.936C23.5479 212.224 22.9319 212.369 22.2505 212.369C21.4118 212.369 20.6648 212.172 20.0095 211.779C19.3674 211.386 18.8628 210.829 18.4959 210.108C18.129 209.374 17.9455 208.529 17.9455 207.572C17.9455 206.615 18.129 205.777 18.4959 205.056C18.8628 204.322 19.3674 203.759 20.0095 203.365C20.6648 202.959 21.4118 202.756 22.2505 202.756C22.9188 202.756 23.5217 202.9 24.059 203.189C24.6094 203.464 25.0288 203.85 25.3171 204.348V204.152C25.3171 203.732 25.4481 203.405 25.7102 203.169C25.9854 202.92 26.3458 202.795 26.7914 202.795ZM23.1154 210.108C23.81 210.108 24.3473 209.885 24.7273 209.44C25.1205 208.994 25.3171 208.372 25.3171 207.572C25.3171 206.773 25.1205 206.15 24.7273 205.705C24.3473 205.246 23.81 205.017 23.1154 205.017C22.4209 205.017 21.877 205.246 21.4838 205.705C21.0907 206.15 20.8941 206.773 20.8941 207.572C20.8941 208.372 21.0907 208.994 21.4838 209.44C21.877 209.885 22.4209 210.108 23.1154 210.108ZM42.4425 202.756C43.4909 202.756 44.2968 203.077 44.8603 203.719C45.4239 204.348 45.7056 205.384 45.7056 206.825V211.366C45.7056 211.825 45.568 212.172 45.2928 212.408C45.0176 212.644 44.6638 212.762 44.2313 212.762C43.8119 212.762 43.4581 212.644 43.1698 212.408C42.8815 212.172 42.7373 211.825 42.7373 211.366V206.786C42.7373 206.157 42.6259 205.718 42.4031 205.469C42.1935 205.207 41.8658 205.076 41.4203 205.076C40.8699 205.076 40.4308 205.266 40.1032 205.646C39.7756 206.026 39.6118 206.557 39.6118 207.238V211.366C39.6118 211.825 39.4742 212.172 39.199 212.408C38.9238 212.644 38.5699 212.762 38.1375 212.762C37.7181 212.762 37.3643 212.644 37.076 212.408C36.7876 212.172 36.6435 211.825 36.6435 211.366V206.786C36.6435 206.157 36.5321 205.718 36.3093 205.469C36.0996 205.207 35.772 205.076 35.3264 205.076C34.776 205.076 34.337 205.266 34.0094 205.646C33.6818 206.026 33.5179 206.557 33.5179 207.238V211.366C33.5179 211.825 33.3738 212.172 33.0855 212.408C32.8103 212.644 32.463 212.762 32.0436 212.762C31.6243 212.762 31.2704 212.644 30.9821 212.408C30.6938 212.172 30.5497 211.825 30.5497 211.366V204.152C30.5497 203.719 30.6938 203.385 30.9821 203.149C31.2835 202.913 31.6439 202.795 32.0633 202.795C32.4564 202.795 32.7841 202.913 33.0462 203.149C33.3083 203.372 33.4393 203.687 33.4393 204.093V204.289C33.7538 203.791 34.1601 203.411 34.6581 203.149C35.1692 202.887 35.7458 202.756 36.3879 202.756C37.0825 202.756 37.6657 202.9 38.1375 203.189C38.6223 203.464 38.9958 203.916 39.2579 204.545C39.5594 203.994 39.9853 203.562 40.5357 203.247C41.0992 202.92 41.7348 202.756 42.4425 202.756ZM52.2863 202.756C53.7016 202.756 54.75 203.103 55.4315 203.798C56.1129 204.479 56.4537 205.528 56.4537 206.943V211.386C56.4537 211.818 56.3292 212.159 56.0802 212.408C55.8312 212.644 55.4839 212.762 55.0383 212.762C54.619 212.762 54.2782 212.637 54.0161 212.388C53.7671 212.126 53.6426 211.792 53.6426 211.386V211.248C53.4461 211.733 53.1184 212.113 52.6598 212.388C52.2011 212.663 51.6638 212.801 51.0479 212.801C50.3926 212.801 49.7963 212.67 49.259 212.408C48.7348 212.146 48.3155 211.779 48.0009 211.307C47.6995 210.835 47.5488 210.311 47.5488 209.734C47.5488 209.027 47.7257 208.47 48.0796 208.064C48.4465 207.657 49.0297 207.362 49.8291 207.179C50.6285 206.996 51.7228 206.904 53.1119 206.904H53.623V206.55C53.623 206 53.4985 205.6 53.2495 205.351C53.0136 205.102 52.6139 204.977 52.0504 204.977C51.4869 204.977 50.6744 205.174 49.6129 205.567C49.3114 205.711 49.0559 205.783 48.8462 205.783C48.5579 205.783 48.3286 205.685 48.1582 205.488C47.9878 205.279 47.9026 205.01 47.9026 204.682C47.9026 204.42 47.9616 204.204 48.0796 204.034C48.1975 203.863 48.3875 203.706 48.6496 203.562C49.1083 203.313 49.6653 203.116 50.3205 202.972C50.9889 202.828 51.6441 202.756 52.2863 202.756ZM51.6965 210.757C52.2732 210.757 52.7384 210.567 53.0922 210.187C53.4461 209.793 53.623 209.289 53.623 208.673V208.339H53.2888C52.2273 208.339 51.4803 208.424 51.0479 208.594C50.6285 208.765 50.4188 209.073 50.4188 209.518C50.4188 209.885 50.5368 210.187 50.7726 210.422C51.0216 210.645 51.3296 210.757 51.6965 210.757Z" fill="#7400B8"/>
<path d="M394.645 198.608C396.44 198.608 397.829 199.205 398.812 200.397C399.795 201.59 400.286 203.293 400.286 205.508C400.286 206.989 400.057 208.286 399.598 209.4C399.14 210.501 398.478 211.346 397.613 211.936C396.761 212.526 395.765 212.821 394.625 212.821C393.878 212.821 393.125 212.696 392.364 212.447C391.604 212.198 390.956 211.851 390.418 211.405C390.235 211.261 390.097 211.111 390.006 210.953C389.927 210.783 389.888 210.58 389.888 210.344C389.888 210.003 389.979 209.715 390.163 209.479C390.359 209.23 390.595 209.105 390.87 209.105C391.041 209.105 391.185 209.132 391.303 209.184C391.434 209.223 391.604 209.302 391.814 209.42C392.338 209.734 392.803 209.983 393.21 210.167C393.629 210.337 394.055 210.422 394.487 210.422C395.3 210.422 395.942 210.049 396.414 209.302C396.899 208.555 397.174 207.507 397.24 206.157C396.938 206.655 396.512 207.055 395.962 207.356C395.411 207.644 394.795 207.788 394.114 207.788C393.301 207.788 392.574 207.598 391.932 207.218C391.303 206.838 390.805 206.308 390.438 205.626C390.084 204.945 389.907 204.171 389.907 203.306C389.907 202.402 390.11 201.596 390.517 200.889C390.923 200.168 391.486 199.611 392.207 199.218C392.928 198.811 393.74 198.608 394.645 198.608ZM394.822 205.41C395.438 205.41 395.936 205.207 396.316 204.8C396.696 204.394 396.886 203.863 396.886 203.208C396.886 202.553 396.696 202.022 396.316 201.616C395.936 201.197 395.438 200.987 394.822 200.987C394.206 200.987 393.708 201.19 393.328 201.596C392.961 202.003 392.777 202.54 392.777 203.208C392.777 203.863 392.961 204.394 393.328 204.8C393.708 205.207 394.206 205.41 394.822 205.41ZM407.749 203.68C408.6 203.68 409.361 203.87 410.029 204.25C410.697 204.617 411.215 205.135 411.582 205.803C411.949 206.471 412.132 207.245 412.132 208.123C412.132 209.04 411.916 209.852 411.484 210.56C411.051 211.268 410.442 211.818 409.655 212.211C408.882 212.604 407.985 212.801 406.962 212.801C406.15 212.801 405.357 212.677 404.584 212.428C403.811 212.179 403.142 211.831 402.579 211.386C402.382 211.242 402.245 211.091 402.166 210.934C402.087 210.763 402.048 210.56 402.048 210.324C402.048 209.983 402.14 209.695 402.323 209.459C402.52 209.21 402.756 209.086 403.031 209.086C403.188 209.086 403.332 209.112 403.463 209.164C403.594 209.204 403.765 209.282 403.974 209.4C404.499 209.715 404.977 209.964 405.409 210.147C405.842 210.318 406.314 210.403 406.825 210.403C407.624 210.403 408.227 210.219 408.633 209.852C409.053 209.485 409.262 208.942 409.262 208.221C409.262 207.539 409.046 207.002 408.614 206.609C408.194 206.216 407.624 206.019 406.903 206.019C406.458 206.019 406.052 206.078 405.685 206.196C405.318 206.301 404.918 206.484 404.485 206.747C404.21 206.904 403.935 206.982 403.66 206.982C403.345 206.982 403.077 206.891 402.854 206.707C402.644 206.511 402.539 206.255 402.539 205.941V200.22C402.539 199.762 402.664 199.408 402.913 199.159C403.162 198.91 403.516 198.785 403.974 198.785H410.304C411.274 198.785 411.759 199.172 411.759 199.945C411.759 200.731 411.274 201.124 410.304 201.124H405.527V204.211C406.156 203.857 406.897 203.68 407.749 203.68ZM419.653 212.27C419.352 212.768 418.978 213.017 418.533 213.017C418.258 213.017 418.015 212.912 417.806 212.703C417.609 212.506 417.511 212.257 417.511 211.956C417.511 211.707 417.589 211.445 417.747 211.169L424.705 199.159C424.981 198.661 425.348 198.412 425.806 198.412C426.095 198.412 426.337 198.517 426.534 198.726C426.743 198.923 426.848 199.172 426.848 199.473C426.848 199.722 426.769 199.984 426.612 200.26L419.653 212.27ZM417.098 207.041C415.971 207.041 415.086 206.681 414.444 205.96C413.815 205.226 413.501 204.165 413.501 202.776C413.501 201.426 413.822 200.391 414.464 199.67C415.106 198.936 415.984 198.569 417.098 198.569C418.225 198.569 419.103 198.936 419.732 199.67C420.374 200.391 420.695 201.432 420.695 202.795C420.695 204.185 420.374 205.239 419.732 205.96C419.103 206.681 418.225 207.041 417.098 207.041ZM417.098 205.194C417.504 205.194 417.799 205.01 417.983 204.643C418.166 204.276 418.258 203.66 418.258 202.795C418.258 201.97 418.159 201.373 417.963 201.007C417.779 200.626 417.491 200.436 417.098 200.436C416.705 200.436 416.416 200.62 416.233 200.987C416.05 201.354 415.958 201.957 415.958 202.795C415.958 203.647 416.05 204.263 416.233 204.643C416.416 205.01 416.705 205.194 417.098 205.194ZM427.241 212.781C426.114 212.781 425.23 212.421 424.587 211.7C423.958 210.966 423.644 209.905 423.644 208.516C423.644 207.153 423.958 206.111 424.587 205.39C425.23 204.669 426.114 204.309 427.241 204.309C428.355 204.309 429.233 204.676 429.875 205.41C430.517 206.131 430.839 207.172 430.839 208.535C430.839 209.911 430.517 210.966 429.875 211.7C429.246 212.421 428.368 212.781 427.241 212.781ZM427.241 210.934C427.647 210.934 427.942 210.75 428.126 210.383C428.309 210.016 428.401 209.4 428.401 208.535C428.401 207.697 428.303 207.094 428.106 206.727C427.923 206.347 427.634 206.157 427.241 206.157C426.848 206.157 426.553 206.347 426.357 206.727C426.173 207.094 426.081 207.697 426.081 208.535C426.081 209.4 426.173 210.016 426.357 210.383C426.54 210.75 426.835 210.934 427.241 210.934Z" fill="#7400B8"/>
<rect y="216.233" width="430.5" height="9.82877" rx="4.91438" fill="url(#paint3_linear)"/>
<path d="M389.219 216.233H425.586C428.3 216.233 430.5 218.433 430.5 221.147C430.5 223.861 428.3 226.062 425.586 226.062H389.219V216.233Z" fill="black"/>
<line x1="388.236" y1="216.233" x2="388.236" y2="184.781" stroke="#7108B9" stroke-width="1.96575"/>
<circle cx="388.237" cy="183.798" r="7.86301" fill="#7108B9" stroke="black" stroke-width="1.96575"/>
<path d="M14.291 271.715C14.3959 271.951 14.4483 272.16 14.4483 272.344C14.4483 272.711 14.2976 273.025 13.9962 273.287C13.7079 273.536 13.3737 273.661 12.9936 273.661C12.7446 273.661 12.5087 273.595 12.286 273.464C12.0632 273.32 11.8928 273.11 11.7749 272.835L10.733 270.516H4.06911L3.02726 272.835C2.90932 273.11 2.73895 273.32 2.51616 273.464C2.30648 273.595 2.07059 273.661 1.80849 273.661C1.42845 273.661 1.08772 273.536 0.786301 273.287C0.484886 273.025 0.334178 272.711 0.334178 272.344C0.334178 272.16 0.386598 271.951 0.491438 271.715L5.79897 260.569C5.94313 260.254 6.15936 260.019 6.44767 259.861C6.73598 259.691 7.04395 259.606 7.37158 259.606C7.71231 259.606 8.02683 259.691 8.31514 259.861C8.60345 260.032 8.82623 260.268 8.98349 260.569L14.291 271.715ZM5.11096 268.196H9.69116L7.41089 263.085L5.11096 268.196ZM24.139 259.625C24.5977 259.625 24.9646 259.75 25.2398 259.999C25.5281 260.248 25.6723 260.576 25.6723 260.982V272.305C25.6723 272.724 25.5347 273.065 25.2595 273.327C24.9974 273.576 24.6435 273.7 24.198 273.7C23.7524 273.7 23.392 273.576 23.1168 273.327C22.8547 273.065 22.7236 272.724 22.7236 272.305V272.147C22.4353 272.645 22.0225 273.038 21.4852 273.327C20.961 273.602 20.3647 273.74 19.6964 273.74C18.8708 273.74 18.1303 273.53 17.4751 273.11C16.8329 272.678 16.3284 272.082 15.9615 271.322C15.6076 270.548 15.4307 269.664 15.4307 268.668C15.4307 267.672 15.6076 266.8 15.9615 266.053C16.3284 265.293 16.8329 264.71 17.4751 264.304C18.1172 263.898 18.8577 263.695 19.6964 263.695C20.3516 263.695 20.9414 263.832 21.4656 264.107C22.0029 264.383 22.4157 264.769 22.704 265.267V260.923C22.704 260.53 22.835 260.215 23.0971 259.979C23.3592 259.743 23.7065 259.625 24.139 259.625ZM20.5613 271.479C21.2559 271.479 21.7866 271.243 22.1536 270.771C22.5336 270.286 22.7236 269.598 22.7236 268.707C22.7236 267.816 22.5336 267.135 22.1536 266.663C21.7866 266.191 21.2559 265.955 20.5613 265.955C19.8668 265.955 19.3294 266.191 18.9494 266.663C18.5694 267.121 18.3793 267.79 18.3793 268.668C18.3793 269.559 18.5694 270.254 18.9494 270.752C19.3294 271.236 19.8668 271.479 20.5613 271.479ZM32.5973 273.74C31.5751 273.74 30.6774 273.536 29.9042 273.13C29.131 272.711 28.5347 272.128 28.1153 271.381C27.696 270.621 27.4863 269.729 27.4863 268.707C27.4863 267.685 27.696 266.8 28.1153 266.053C28.5347 265.293 29.131 264.71 29.9042 264.304C30.6774 263.898 31.5751 263.695 32.5973 263.695C33.6195 263.695 34.5171 263.898 35.2903 264.304C36.0635 264.71 36.6598 265.293 37.0792 266.053C37.4985 266.8 37.7082 267.685 37.7082 268.707C37.7082 269.729 37.4985 270.621 37.0792 271.381C36.6598 272.128 36.0635 272.711 35.2903 273.13C34.5171 273.536 33.6195 273.74 32.5973 273.74ZM32.5973 271.479C34.0388 271.479 34.7596 270.555 34.7596 268.707C34.7596 267.777 34.5696 267.082 34.1895 266.624C33.8226 266.165 33.2918 265.935 32.5973 265.935C31.1557 265.935 30.4349 266.859 30.4349 268.707C30.4349 270.555 31.1557 271.479 32.5973 271.479ZM45.4905 263.695C46.3292 263.695 47.0696 263.898 47.7118 264.304C48.3539 264.71 48.8519 265.293 49.2057 266.053C49.5727 266.8 49.7561 267.672 49.7561 268.668C49.7561 269.664 49.5727 270.548 49.2057 271.322C48.8519 272.082 48.3473 272.678 47.6921 273.11C47.0499 273.53 46.3161 273.74 45.4905 273.74C44.8221 273.74 44.2193 273.602 43.682 273.327C43.1447 273.038 42.7318 272.645 42.4435 272.147V272.305C42.4435 272.724 42.3125 273.065 42.0504 273.327C41.7883 273.576 41.4344 273.7 40.9889 273.7C40.5433 273.7 40.1829 273.576 39.9077 273.327C39.6456 273.065 39.5146 272.724 39.5146 272.305V260.982C39.5146 260.576 39.6522 260.248 39.9274 259.999C40.2157 259.75 40.5892 259.625 41.0478 259.625C41.4803 259.625 41.8276 259.743 42.0897 259.979C42.3518 260.215 42.4828 260.53 42.4828 260.923V265.228C42.7712 264.743 43.1774 264.369 43.7016 264.107C44.2389 263.832 44.8352 263.695 45.4905 263.695ZM44.6255 271.479C45.3201 271.479 45.8574 271.236 46.2374 270.752C46.6175 270.254 46.8075 269.559 46.8075 268.668C46.8075 267.79 46.6175 267.121 46.2374 266.663C45.8574 266.191 45.3201 265.955 44.6255 265.955C43.931 265.955 43.3936 266.198 43.0136 266.682C42.6336 267.154 42.4435 267.829 42.4435 268.707C42.4435 269.598 42.6336 270.286 43.0136 270.771C43.3936 271.243 43.931 271.479 44.6255 271.479ZM59.3152 270.712C59.5773 270.712 59.787 270.817 59.9443 271.027C60.1146 271.236 60.1998 271.505 60.1998 271.833C60.1998 272.056 60.1343 272.265 60.0032 272.462C59.8722 272.645 59.6887 272.803 59.4528 272.934C59.0073 273.169 58.4896 273.366 57.8999 273.523C57.3102 273.667 56.7663 273.74 56.2683 273.74C55.2199 273.74 54.3026 273.536 53.5163 273.13C52.7431 272.724 52.1468 272.147 51.7274 271.4C51.3081 270.64 51.0984 269.749 51.0984 268.727C51.0984 267.744 51.3015 266.873 51.7078 266.112C52.114 265.352 52.6775 264.763 53.3983 264.343C54.1191 263.911 54.9381 263.695 55.8555 263.695C56.7335 263.695 57.5002 263.891 58.1554 264.284C58.8238 264.664 59.3414 265.215 59.7084 265.935C60.0753 266.643 60.2588 267.475 60.2588 268.432C60.2588 268.72 60.1867 268.943 60.0426 269.1C59.9115 269.245 59.7215 269.317 59.4725 269.317H53.9684C54.0601 270.09 54.296 270.653 54.676 271.007C55.0561 271.348 55.6 271.518 56.3076 271.518C56.6877 271.518 57.0284 271.472 57.3298 271.381C57.6312 271.289 57.9654 271.164 58.3323 271.007C58.5158 270.929 58.6927 270.863 58.8631 270.811C59.0335 270.745 59.1842 270.712 59.3152 270.712ZM55.9341 265.739C55.3706 265.739 54.9185 265.922 54.5778 266.289C54.237 266.643 54.0339 267.161 53.9684 267.842H57.7623C57.723 267.148 57.546 266.624 57.2315 266.27C56.9301 265.916 56.4976 265.739 55.9341 265.739ZM78.8253 271.381C79.0743 271.669 79.1988 271.97 79.1988 272.285C79.1988 272.665 79.0481 272.999 78.7467 273.287C78.4584 273.563 78.1242 273.7 77.7442 273.7C77.351 273.7 77.0168 273.536 76.7416 273.209L73.046 268.688L69.3111 273.209C69.0228 273.536 68.6886 273.7 68.3085 273.7C67.9416 273.7 67.6074 273.563 67.306 273.287C67.0177 272.999 66.8735 272.665 66.8735 272.285C66.8735 271.957 66.9915 271.656 67.2274 271.381L71.2572 266.584L67.365 261.925C67.116 261.637 66.9915 261.336 66.9915 261.021C66.9915 260.641 67.1356 260.313 67.424 260.038C67.7254 259.75 68.0595 259.606 68.4265 259.606C68.8196 259.606 69.1604 259.776 69.4487 260.117L73.046 264.461L76.604 260.117C76.8923 259.776 77.2331 259.606 77.6262 259.606C77.9932 259.606 78.3208 259.75 78.6091 260.038C78.9105 260.313 79.0612 260.641 79.0612 261.021C79.0612 261.349 78.9433 261.65 78.7074 261.925L74.8152 266.584L78.8253 271.381ZM82.4778 273.582C82.0191 273.582 81.6653 273.458 81.4163 273.209C81.1673 272.96 81.0428 272.606 81.0428 272.147V261.159C81.0428 260.7 81.1673 260.346 81.4163 260.097C81.6653 259.848 82.0191 259.724 82.4778 259.724H86.429C87.936 259.724 89.2334 259.999 90.3211 260.549C91.4089 261.1 92.241 261.893 92.8177 262.928C93.3943 263.963 93.6826 265.202 93.6826 266.643C93.6826 268.085 93.3943 269.33 92.8177 270.378C92.2541 271.413 91.4285 272.206 90.3408 272.757C89.2531 273.307 87.9491 273.582 86.429 273.582H82.4778ZM86.2127 271.105C89.1614 271.105 90.6357 269.618 90.6357 266.643C90.6357 263.681 89.1614 262.201 86.2127 262.201H84.1094V271.105H86.2127Z" fill="#7400B8"/>
<path d="M305.557 266.447C306.356 266.682 306.972 267.095 307.404 267.685C307.837 268.262 308.053 268.969 308.053 269.808C308.053 271.04 307.581 272.003 306.638 272.698C305.694 273.392 304.39 273.74 302.726 273.74C301.062 273.74 299.758 273.392 298.814 272.698C297.87 272.003 297.399 271.04 297.399 269.808C297.399 268.943 297.615 268.222 298.047 267.646C298.48 267.069 299.102 266.669 299.915 266.447C299.233 266.184 298.703 265.778 298.323 265.228C297.943 264.677 297.753 264.035 297.753 263.301C297.753 262.148 298.198 261.237 299.089 260.569C299.98 259.888 301.193 259.547 302.726 259.547C304.272 259.547 305.484 259.881 306.363 260.549C307.254 261.218 307.699 262.135 307.699 263.301C307.699 264.048 307.509 264.704 307.129 265.267C306.749 265.831 306.225 266.224 305.557 266.447ZM302.726 261.886C301.324 261.886 300.623 262.469 300.623 263.636C300.623 264.815 301.324 265.405 302.726 265.405C304.128 265.405 304.829 264.815 304.829 263.636C304.829 262.469 304.128 261.886 302.726 261.886ZM302.726 271.4C304.377 271.4 305.203 270.791 305.203 269.572C305.203 268.353 304.377 267.744 302.726 267.744C301.075 267.744 300.249 268.353 300.249 269.572C300.249 270.791 301.075 271.4 302.726 271.4ZM314.513 273.759C312.835 273.759 311.551 273.15 310.66 271.931C309.782 270.712 309.343 268.95 309.343 266.643C309.343 264.35 309.782 262.594 310.66 261.375C311.551 260.156 312.835 259.547 314.513 259.547C316.19 259.547 317.468 260.156 318.346 261.375C319.237 262.594 319.683 264.35 319.683 266.643C319.683 268.95 319.237 270.712 318.346 271.931C317.468 273.15 316.19 273.759 314.513 273.759ZM314.513 271.42C315.273 271.42 315.823 271.04 316.164 270.28C316.518 269.52 316.695 268.308 316.695 266.643C316.695 264.966 316.518 263.754 316.164 263.007C315.823 262.26 315.273 261.886 314.513 261.886C313.753 261.886 313.196 262.266 312.842 263.026C312.501 263.773 312.331 264.979 312.331 266.643C312.331 268.308 312.501 269.52 312.842 270.28C313.196 271.04 313.753 271.42 314.513 271.42ZM327.263 273.209C326.961 273.707 326.588 273.956 326.142 273.956C325.867 273.956 325.625 273.851 325.415 273.641C325.218 273.445 325.12 273.196 325.12 272.894C325.12 272.645 325.199 272.383 325.356 272.108L332.315 260.097C332.59 259.599 332.957 259.35 333.416 259.35C333.704 259.35 333.946 259.455 334.143 259.665C334.353 259.861 334.457 260.11 334.457 260.412C334.457 260.661 334.379 260.923 334.222 261.198L327.263 273.209ZM324.707 267.98C323.58 267.98 322.696 267.619 322.054 266.899C321.424 266.165 321.11 265.103 321.11 263.714C321.11 262.364 321.431 261.329 322.073 260.608C322.715 259.874 323.593 259.507 324.707 259.507C325.834 259.507 326.712 259.874 327.341 260.608C327.984 261.329 328.305 262.371 328.305 263.734C328.305 265.123 327.984 266.178 327.341 266.899C326.712 267.619 325.834 267.98 324.707 267.98ZM324.707 266.132C325.114 266.132 325.408 265.949 325.592 265.582C325.775 265.215 325.867 264.599 325.867 263.734C325.867 262.908 325.769 262.312 325.572 261.945C325.389 261.565 325.1 261.375 324.707 261.375C324.314 261.375 324.026 261.558 323.842 261.925C323.659 262.292 323.567 262.895 323.567 263.734C323.567 264.586 323.659 265.202 323.842 265.582C324.026 265.949 324.314 266.132 324.707 266.132ZM334.851 273.72C333.724 273.72 332.839 273.359 332.197 272.639C331.568 271.905 331.253 270.843 331.253 269.454C331.253 268.091 331.568 267.049 332.197 266.329C332.839 265.608 333.724 265.247 334.851 265.247C335.965 265.247 336.843 265.614 337.485 266.348C338.127 267.069 338.448 268.111 338.448 269.474C338.448 270.85 338.127 271.905 337.485 272.639C336.856 273.359 335.978 273.72 334.851 273.72ZM334.851 271.872C335.257 271.872 335.552 271.689 335.735 271.322C335.919 270.955 336.01 270.339 336.01 269.474C336.01 268.635 335.912 268.032 335.716 267.665C335.532 267.285 335.244 267.095 334.851 267.095C334.457 267.095 334.163 267.285 333.966 267.665C333.783 268.032 333.691 268.635 333.691 269.474C333.691 270.339 333.783 270.955 333.966 271.322C334.149 271.689 334.444 271.872 334.851 271.872Z" fill="#7400B8"/>
<rect y="277.171" width="430.5" height="9.82877" rx="4.91438" fill="url(#paint4_linear)"/>
<path d="M283.068 277.171H425.585C428.3 277.171 430.5 279.371 430.5 282.086C430.5 284.8 428.3 287 425.585 287H283.068V277.171Z" fill="black"/>
<line x1="282.085" y1="277.171" x2="282.085" y2="245.719" stroke="#7108B9" stroke-width="1.96575"/>
<circle cx="282.086" cy="244.736" r="7.86301" fill="#7108B9" stroke="black" stroke-width="1.96575"/>
<defs>
<linearGradient id="paint0_linear" x1="1.96575" y1="42.2636" x2="269.308" y2="41.2806" gradientUnits="userSpaceOnUse">
<stop stop-color="#13C6BF"/>
<stop offset="1" stop-color="#7400B8"/>
</linearGradient>
<linearGradient id="paint1_linear" x1="1.96575" y1="99.2704" x2="269.308" y2="98.2875" gradientUnits="userSpaceOnUse">
<stop stop-color="#13C6BF"/>
<stop offset="1" stop-color="#7400B8"/>
</linearGradient>
<linearGradient id="paint2_linear" x1="1.96575" y1="158.243" x2="269.308" y2="157.26" gradientUnits="userSpaceOnUse">
<stop stop-color="#13C6BF"/>
<stop offset="1" stop-color="#7400B8"/>
</linearGradient>
<linearGradient id="paint3_linear" x1="1.96575" y1="217.216" x2="269.308" y2="216.233" gradientUnits="userSpaceOnUse">
<stop stop-color="#13C6BF"/>
<stop offset="1" stop-color="#7400B8"/>
</linearGradient>
<linearGradient id="paint4_linear" x1="1.96575" y1="278.154" x2="269.308" y2="277.171" gradientUnits="userSpaceOnUse">
<stop stop-color="#13C6BF"/>
<stop offset="1" stop-color="#7400B8"/>
</linearGradient>
</defs>
</svg>
