<svg width="184" height="59" viewBox="0 0 184 59" fill="none" xmlns="http://www.w3.org/2000/svg">
<rect x="0.25" y="25.5757" width="157.5" height="32.5" fill="#FFA8A7" stroke="white" stroke-width="0.5"/>
<path d="M18.88 35.3657V37.6257H15.16V49.3257H12.36V37.6257H8.64V35.3657H18.88ZM31.223 43.5457C31.223 43.9457 31.1963 44.3057 31.143 44.6257H23.043C23.1096 45.4257 23.3896 46.0524 23.883 46.5057C24.3763 46.959 24.983 47.1857 25.703 47.1857C26.743 47.1857 27.483 46.739 27.923 45.8457H30.943C30.623 46.9124 30.0096 47.7924 29.103 48.4857C28.1963 49.1657 27.083 49.5057 25.763 49.5057C24.6963 49.5057 23.7363 49.2724 22.883 48.8057C22.043 48.3257 21.383 47.6524 20.903 46.7857C20.4363 45.919 20.203 44.919 20.203 43.7857C20.203 42.639 20.4363 41.6323 20.903 40.7657C21.3696 39.899 22.023 39.2323 22.863 38.7657C23.703 38.299 24.6696 38.0657 25.763 38.0657C26.8163 38.0657 27.7563 38.2923 28.583 38.7457C29.423 39.199 30.0696 39.8457 30.523 40.6857C30.9896 41.5124 31.223 42.4657 31.223 43.5457ZM28.323 42.7457C28.3096 42.0257 28.0496 41.4523 27.543 41.0257C27.0363 40.5857 26.4163 40.3657 25.683 40.3657C24.9896 40.3657 24.403 40.579 23.923 41.0057C23.4563 41.419 23.1696 41.999 23.063 42.7457H28.323ZM32.5467 43.7857C32.5467 42.639 32.7801 41.639 33.2467 40.7857C33.7134 39.919 34.3601 39.2524 35.1867 38.7857C36.0134 38.3057 36.9601 38.0657 38.0267 38.0657C39.4001 38.0657 40.5334 38.4123 41.4267 39.1057C42.3334 39.7857 42.9401 40.7457 43.2467 41.9857H40.2267C40.0667 41.5057 39.7934 41.1323 39.4067 40.8657C39.0334 40.5857 38.5667 40.4457 38.0067 40.4457C37.2067 40.4457 36.5734 40.739 36.1067 41.3257C35.6401 41.899 35.4067 42.719 35.4067 43.7857C35.4067 44.839 35.6401 45.659 36.1067 46.2457C36.5734 46.819 37.2067 47.1057 38.0067 47.1057C39.1401 47.1057 39.8801 46.599 40.2267 45.5857H43.2467C42.9401 46.7857 42.3334 47.739 41.4267 48.4457C40.5201 49.1524 39.3867 49.5057 38.0267 49.5057C36.9601 49.5057 36.0134 49.2724 35.1867 48.8057C34.3601 48.3257 33.7134 47.659 33.2467 46.8057C32.7801 45.939 32.5467 44.9323 32.5467 43.7857ZM51.538 38.0857C52.378 38.0857 53.1246 38.2723 53.778 38.6457C54.4313 39.0057 54.938 39.5457 55.298 40.2657C55.6713 40.9724 55.858 41.8257 55.858 42.8257V49.3257H53.058V43.2057C53.058 42.3257 52.838 41.6524 52.398 41.1857C51.958 40.7057 51.358 40.4657 50.598 40.4657C49.8246 40.4657 49.2113 40.7057 48.758 41.1857C48.318 41.6524 48.098 42.3257 48.098 43.2057V49.3257H45.298V34.5257H48.098V39.6257C48.458 39.1457 48.938 38.7723 49.538 38.5057C50.138 38.2257 50.8046 38.0857 51.538 38.0857ZM66.0863 39.9657C66.4463 39.379 66.9129 38.919 67.4863 38.5857C68.0729 38.2523 68.7396 38.0857 69.4863 38.0857V41.0257H68.7463C67.8663 41.0257 67.1996 41.2323 66.7463 41.6457C66.3063 42.059 66.0863 42.779 66.0863 43.8057V49.3257H63.2863V38.2457H66.0863V39.9657ZM81.6722 43.5457C81.6722 43.9457 81.6455 44.3057 81.5922 44.6257H73.4922C73.5589 45.4257 73.8389 46.0524 74.3322 46.5057C74.8255 46.959 75.4322 47.1857 76.1522 47.1857C77.1922 47.1857 77.9322 46.739 78.3722 45.8457H81.3922C81.0722 46.9124 80.4589 47.7924 79.5522 48.4857C78.6455 49.1657 77.5322 49.5057 76.2122 49.5057C75.1455 49.5057 74.1855 49.2724 73.3322 48.8057C72.4922 48.3257 71.8322 47.6524 71.3522 46.7857C70.8855 45.919 70.6522 44.919 70.6522 43.7857C70.6522 42.639 70.8855 41.6323 71.3522 40.7657C71.8189 39.899 72.4722 39.2323 73.3122 38.7657C74.1522 38.299 75.1189 38.0657 76.2122 38.0657C77.2655 38.0657 78.2055 38.2923 79.0322 38.7457C79.8722 39.199 80.5189 39.8457 80.9722 40.6857C81.4389 41.5124 81.6722 42.4657 81.6722 43.5457ZM78.7722 42.7457C78.7589 42.0257 78.4989 41.4523 77.9922 41.0257C77.4855 40.5857 76.8655 40.3657 76.1322 40.3657C75.4389 40.3657 74.8522 40.579 74.3722 41.0057C73.9055 41.419 73.6189 41.999 73.5122 42.7457H78.7722ZM82.9959 43.7857C82.9959 42.639 83.2293 41.639 83.6959 40.7857C84.1626 39.919 84.8093 39.2524 85.6359 38.7857C86.4626 38.3057 87.4093 38.0657 88.4759 38.0657C89.8493 38.0657 90.9826 38.4123 91.8759 39.1057C92.7826 39.7857 93.3893 40.7457 93.6959 41.9857H90.6759C90.5159 41.5057 90.2426 41.1323 89.8559 40.8657C89.4826 40.5857 89.0159 40.4457 88.4559 40.4457C87.6559 40.4457 87.0226 40.739 86.5559 41.3257C86.0893 41.899 85.8559 42.719 85.8559 43.7857C85.8559 44.839 86.0893 45.659 86.5559 46.2457C87.0226 46.819 87.6559 47.1057 88.4559 47.1057C89.5893 47.1057 90.3293 46.599 90.6759 45.5857H93.6959C93.3893 46.7857 92.7826 47.739 91.8759 48.4457C90.9693 49.1524 89.8359 49.5057 88.4759 49.5057C87.4093 49.5057 86.4626 49.2724 85.6359 48.8057C84.8093 48.3257 84.1626 47.659 83.6959 46.8057C83.2293 45.939 82.9959 44.9323 82.9959 43.7857ZM98.5472 39.9657C98.9072 39.379 99.3739 38.919 99.9472 38.5857C100.534 38.2523 101.201 38.0857 101.947 38.0857V41.0257H101.207C100.327 41.0257 99.6605 41.2323 99.2072 41.6457C98.7672 42.059 98.5472 42.779 98.5472 43.8057V49.3257H95.7472V38.2457H98.5472V39.9657ZM114.293 38.2457V49.3257H111.473V47.9257C111.113 48.4057 110.64 48.7857 110.053 49.0657C109.48 49.3324 108.853 49.4657 108.173 49.4657C107.306 49.4657 106.54 49.2857 105.873 48.9257C105.206 48.5524 104.68 48.0124 104.293 47.3057C103.92 46.5857 103.733 45.7324 103.733 44.7457V38.2457H106.533V44.3457C106.533 45.2257 106.753 45.9057 107.193 46.3857C107.633 46.8524 108.233 47.0857 108.993 47.0857C109.766 47.0857 110.373 46.8524 110.813 46.3857C111.253 45.9057 111.473 45.2257 111.473 44.3457V38.2457H114.293ZM118.476 36.9257C117.982 36.9257 117.569 36.7724 117.236 36.4657C116.916 36.1457 116.756 35.7523 116.756 35.2857C116.756 34.819 116.916 34.4323 117.236 34.1257C117.569 33.8057 117.982 33.6457 118.476 33.6457C118.969 33.6457 119.376 33.8057 119.696 34.1257C120.029 34.4323 120.196 34.819 120.196 35.2857C120.196 35.7523 120.029 36.1457 119.696 36.4657C119.376 36.7724 118.969 36.9257 118.476 36.9257ZM119.856 38.2457V49.3257H117.056V38.2457H119.856ZM125.882 40.5457V45.9057C125.882 46.279 125.969 46.5524 126.142 46.7257C126.329 46.8857 126.636 46.9657 127.062 46.9657H128.362V49.3257H126.602C124.242 49.3257 123.062 48.179 123.062 45.8857V40.5457H121.742V38.2457H123.062V35.5057H125.882V38.2457H128.362V40.5457H125.882ZM140.676 43.5457C140.676 43.9457 140.649 44.3057 140.596 44.6257H132.496C132.563 45.4257 132.843 46.0524 133.336 46.5057C133.829 46.959 134.436 47.1857 135.156 47.1857C136.196 47.1857 136.936 46.739 137.376 45.8457H140.396C140.076 46.9124 139.463 47.7924 138.556 48.4857C137.649 49.1657 136.536 49.5057 135.216 49.5057C134.149 49.5057 133.189 49.2724 132.336 48.8057C131.496 48.3257 130.836 47.6524 130.356 46.7857C129.889 45.919 129.656 44.919 129.656 43.7857C129.656 42.639 129.889 41.6323 130.356 40.7657C130.823 39.899 131.476 39.2323 132.316 38.7657C133.156 38.299 134.123 38.0657 135.216 38.0657C136.269 38.0657 137.209 38.2923 138.036 38.7457C138.876 39.199 139.523 39.8457 139.976 40.6857C140.443 41.5124 140.676 42.4657 140.676 43.5457ZM137.776 42.7457C137.763 42.0257 137.503 41.4523 136.996 41.0257C136.489 40.5857 135.869 40.3657 135.136 40.3657C134.443 40.3657 133.856 40.579 133.376 41.0057C132.909 41.419 132.623 41.999 132.516 42.7457H137.776ZM145.52 39.9657C145.88 39.379 146.347 38.919 146.92 38.5857C147.507 38.2523 148.173 38.0857 148.92 38.0857V41.0257H148.18C147.3 41.0257 146.633 41.2323 146.18 41.6457C145.74 42.059 145.52 42.779 145.52 43.8057V49.3257H142.72V38.2457H145.52V39.9657Z" fill="white"/>
<path d="M161.147 13.7502L177.154 6.90582L170.77 24.391L167.486 17.2607L167.414 17.104L167.27 17.0269L161.147 13.7502Z" fill="#FFA8A7" stroke="white"/>
</svg>
